# This file uses centimeters as units for non-parametric coordinates.

g default
v -1.113863 -0.740768 1.101531
v -0.849000 -0.997134 1.299987
v -0.036488 -0.927598 1.345002
v 0.776592 -0.911290 1.319026
v 1.145461 -0.738493 1.135713
v -1.121042 -0.812159 0.697477
v -0.849752 -1.092924 0.835056
v 0.010220 -1.131366 0.920320
v 0.874964 -0.990978 0.820725
v 1.226811 -0.810031 0.691438
v -1.283222 -0.962171 0.000522
v -0.924657 -1.197919 -0.036613
v 0.123100 -1.385926 -0.207247
v 0.902737 -1.153303 -0.028953
v 1.253444 -0.915440 -0.021243
v -1.252969 -0.950000 -0.747262
v -0.929624 -1.267223 -0.949883
v -0.003049 -1.401672 -1.047891
v 0.833482 -1.060701 -0.845335
v 1.238587 -0.862587 -0.759217
v -1.245427 -0.958541 -1.233001
v -0.902031 -1.253997 -1.549428
v 0.013990 -1.280867 -1.549942
v 0.778650 -0.994233 -1.306755
v 1.130859 -0.829250 -1.142859
v -1.284428 1.612900 1.245414
v -0.850081 1.605643 1.342723
v -0.084393 1.693987 1.383019
v 0.700960 1.747198 1.379611
v 0.989576 1.531110 1.168216
v -1.395016 1.636540 0.847946
v -1.023261 1.961810 1.012028
v -0.076216 2.184964 1.173976
v 0.843481 1.934502 0.976578
v 1.063072 1.535958 0.764058
v -1.099102 1.954646 0.041597
v -0.011749 2.265722 -0.061353
v 0.944765 2.141446 0.059983
v 1.222400 1.683659 0.078048
v -1.438262 1.613969 0.063901
v -1.461622 1.759629 -0.761184
v -1.008576 1.858805 -0.881871
v -0.068649 2.026926 -0.919460
v 1.007663 2.150671 -1.019516
v 1.430841 1.870587 -0.811882
v -1.232260 1.409321 -1.040815
v -0.842485 1.487226 -1.164851
v -0.046832 1.803908 -1.466295
v 0.769653 1.756117 -1.396759
v 1.123907 1.525159 -1.135760
v -1.179473 -0.327736 1.167675
v -0.901744 -0.517327 1.439102
v -0.037177 -0.681286 1.855610
v 1.019815 -0.596816 1.767186
v 1.415736 -0.451937 1.434387
v 1.529142 -0.518351 0.893794
v 1.685939 -0.626487 -0.039185
v 1.511003 -0.560126 -0.968268
v 1.309325 -0.446543 -1.321286
v 1.026107 -0.700158 -1.653466
v 0.023494 -0.935714 -1.945824
v -1.096439 -0.793703 -1.850534
v -1.370489 -0.539882 -1.341647
v -1.518505 -0.600423 -0.871867
v -1.530555 -0.619169 0.015286
v -1.430452 -0.515496 0.871487
v -1.002397 0.331836 1.651902
v 0.067988 0.641727 2.144851
v 1.150467 0.435916 2.028760
v 1.443645 0.432039 1.497997
v 1.679892 0.380527 1.077633
v 1.868949 0.590628 -0.068604
v 1.530677 0.348460 -0.948963
v 1.311430 0.326772 -1.323500
v 1.032638 0.281299 -1.747365
v -0.151609 0.435700 -1.882145
v -1.078950 0.285346 -1.683225
v -1.314081 0.265681 -1.253681
v -1.627470 0.290524 -0.904545
v -1.973745 0.494901 0.117643
v -1.728002 0.379196 1.019799
v -1.361386 0.352220 1.340269
v -1.522982 1.282080 1.479681
v -0.968085 1.203758 1.578209
v -0.069741 1.325371 1.592472
v 0.867463 1.380706 1.649845
v 1.167213 1.196752 1.348201
v 1.232452 1.226365 0.889935
v 1.643519 1.310497 -0.009561
v 1.393012 1.269048 -0.786823
v 1.159893 1.053730 -1.171747
v 0.801139 1.223653 -1.466396
v -0.084722 1.314830 -1.698643
v -0.910884 1.058240 -1.253200
v -1.341414 1.022556 -1.165653
v -1.671974 1.242953 -0.894602
v -1.709927 1.245602 0.045977
v -1.694239 1.318377 1.004693
vt 0.758495 0.229859
vt 0.741499 0.218313
vt 0.758460 0.205496
vt 0.773517 0.220401
vt 0.799210 0.181925
vt 0.810257 0.206740
vt 0.848592 0.152521
vt 0.855714 0.187918
vt 0.870455 0.131194
vt 0.885045 0.172459
vt 0.705957 0.201217
vt 0.718508 0.178090
vt 0.758803 0.122519
vt 0.812365 0.100705
vt 0.837327 0.083546
vt 0.661205 0.180093
vt 0.667243 0.142482
vt 0.712489 0.085356
vt 0.774110 0.054598
vt 0.803479 0.040227
vt 0.626855 0.162856
vt 0.633161 0.109228
vt 0.688017 0.054181
vt 0.751232 0.028158
vt 0.782329 0.021307
vt 0.760022 0.333861
vt 0.778355 0.339090
vt 0.761318 0.353269
vt 0.743662 0.340013
vt 0.808863 0.356247
vt 0.797219 0.376258
vt 0.846775 0.382799
vt 0.834252 0.408410
vt 0.873119 0.403563
vt 0.852980 0.435164
vt 0.724498 0.375782
vt 0.712330 0.354894
vt 0.759243 0.418144
vt 0.797266 0.444968
vt 0.816343 0.464358
vt 0.685653 0.408469
vt 0.675468 0.382508
vt 0.726058 0.444122
vt 0.762228 0.475296
vt 0.778787 0.484331
vt 0.665228 0.434353
vt 0.641801 0.401757
vt 0.710602 0.468938
vt 0.743281 0.487459
vt 0.763299 0.500187
vt 0.778426 0.241276
vt 0.759212 0.249764
vt 0.821461 0.231700
vt 0.877203 0.222075
vt 0.914086 0.213174
vt 0.779968 0.280813
vt 0.760306 0.281586
vt 0.832875 0.297440
vt 0.889993 0.288729
vt 0.930349 0.291484
vt 0.779754 0.318287
vt 0.758561 0.317743
vt 0.817024 0.337113
vt 0.868503 0.358115
vt 0.902607 0.365708
vt 0.964568 0.599914
vt 0.932941 0.618049
vt 0.932286 0.581320
vt 0.970401 0.559524
vt 0.879118 0.649555
vt 0.866938 0.611705
vt 0.811613 0.659095
vt 0.796999 0.625821
vt 0.769641 0.658562
vt 0.767051 0.621486
vt 0.918170 0.510170
vt 0.948001 0.487939
vt 0.842589 0.533174
vt 0.791452 0.564273
vt 0.766085 0.567761
vt 0.876059 0.448890
vt 0.906467 0.429361
vt 0.829971 0.483719
vt 0.787763 0.508285
vt 0.764804 0.523589
vt 0.726692 0.671049
vt 0.734153 0.633047
vt 0.650995 0.670280
vt 0.659203 0.631963
vt 0.581406 0.638252
vt 0.588450 0.596054
vt 0.545542 0.605396
vt 0.553865 0.567171
vt 0.737500 0.569527
vt 0.670806 0.537710
vt 0.608008 0.520142
vt 0.577145 0.499269
vt 0.739137 0.513562
vt 0.694989 0.489667
vt 0.639006 0.454897
vt 0.609953 0.434440
vt 0.642554 0.211573
vt 0.603656 0.202629
vt 0.698212 0.225855
vt 0.739719 0.240553
vt 0.632393 0.283519
vt 0.596820 0.281244
vt 0.697961 0.292687
vt 0.739228 0.284518
vt 0.650898 0.356536
vt 0.616749 0.356554
vt 0.702809 0.334097
vt 0.742149 0.321318
vn -0.874181 -0.375606 0.307778
vn -0.634472 -0.713312 0.297709
vn -0.494691 -0.854577 0.158045
vn -0.485005 -0.731404 0.479394
vn -0.035601 -0.927987 0.370909
vn 0.053521 -0.897025 0.438728
vn 0.364225 -0.899911 0.239793
vn 0.204457 -0.915189 0.347312
vn 0.516099 -0.826781 0.223774
vn 0.539452 -0.804510 0.248508
vn -0.595055 -0.766381 0.242013
vn -0.371608 -0.910144 0.183153
vn -0.250553 -0.964835 0.079483
vn 0.516281 -0.831321 0.205812
vn 0.521458 -0.846173 0.109875
vn -0.756063 -0.652507 -0.051028
vn -0.509729 -0.856079 -0.085467
vn -0.082420 -0.992662 -0.088483
vn 0.486804 -0.844930 -0.221620
vn 0.598789 -0.765907 -0.234175
vn -0.791186 -0.564071 -0.236322
vn -0.382240 -0.822063 -0.422025
vn -0.063683 -0.849008 -0.524528
vn 0.529824 -0.809210 -0.253901
vn 0.661525 -0.702354 -0.262836
vn -0.401795 0.754862 0.518405
vn -0.095848 0.547021 0.831614
vn -0.457807 0.819452 0.344836
vn -0.722139 0.691715 0.006809
vn -0.081270 0.436075 0.896233
vn -0.259771 0.750451 0.607735
vn 0.302431 0.750235 0.587948
vn 0.686181 0.614134 0.389865
vn 0.740849 0.634820 0.219423
vn 0.848594 0.477443 0.227896
vn -0.558490 0.829439 -0.010952
vn -0.771028 0.635396 0.042296
vn -0.390254 0.917232 -0.079919
vn 0.757895 0.585569 0.287584
vn 0.823630 0.476884 0.306944
vn -0.244948 0.840030 -0.484097
vn -0.633148 0.718065 -0.288974
vn -0.246140 0.908173 -0.338582
vn 0.358966 0.771425 -0.525402
vn 0.855606 0.397104 -0.332033
vn -0.384844 0.366050 -0.847291
vn -0.289624 0.315337 -0.903704
vn -0.439441 0.587814 -0.679240
vn 0.505800 0.420829 -0.753040
vn 0.694906 0.120127 -0.708996
vn -0.720922 -0.253306 0.645064
vn -0.687266 -0.341160 0.641307
vn -0.312690 -0.656771 0.686205
vn 0.435869 -0.629494 0.643238
vn 0.736688 -0.460110 0.495570
vn -0.681508 -0.213258 0.700048
vn -0.601150 -0.340507 0.722961
vn -0.555971 -0.052009 0.829573
vn 0.724016 -0.259663 0.639043
vn 0.845780 -0.055237 0.530665
vn -0.087347 0.310275 0.946626
vn -0.579175 0.242848 0.778191
vn -0.124212 0.524297 0.842427
vn 0.387806 0.680767 0.621420
vn 0.785100 0.564395 0.255099
vn 0.746479 -0.604384 0.278368
vn 0.772730 -0.624456 0.113764
vn 0.749646 -0.530043 -0.396339
vn 0.793417 -0.378241 -0.476889
vn 0.923879 -0.084902 0.373147
vn 0.981364 -0.094822 0.167131
vn 0.899940 0.064112 -0.431275
vn 0.830294 0.108352 -0.546691
vn 0.796054 0.574569 0.190179
vn 0.776562 0.560542 0.287653
vn 0.841031 0.110730 -0.529534
vn 0.754359 0.138378 -0.641712
vn 0.601534 -0.470329 -0.645715
vn 0.278102 -0.423512 -0.862147
vn -0.584396 -0.289175 -0.758195
vn -0.888215 -0.141654 -0.437045
vn 0.510799 -0.077473 -0.856203
vn 0.056491 -0.038396 -0.997665
vn -0.552511 0.164203 -0.817171
vn -0.838262 0.086027 -0.538439
vn 0.680218 0.274745 -0.679572
vn 0.042624 0.308271 -0.950343
vn -0.370988 0.447816 -0.813529
vn -0.480929 0.255620 -0.838669
vn -0.875788 -0.434467 -0.210321
vn -0.806722 -0.590744 -0.014830
vn -0.629883 -0.578645 0.518090
vn -0.833779 -0.073770 -0.547148
vn -0.926165 -0.343449 -0.155762
vn -0.748490 -0.345015 0.566328
vn -0.860514 0.186055 -0.474236
vn -0.863493 0.499463 -0.070118
vn -0.879336 0.472449 0.059661
s 1
g polySurface2 polySurface1
f 1/1/1 6/2/2 7/3/3 2/4/4
f 2/4/4 7/3/3 8/5/5 3/6/6
f 3/6/6 8/5/5 9/7/7 4/8/8
f 4/8/8 9/7/7 10/9/9 5/10/10
f 6/2/2 11/11/11 12/12/12 7/3/3
f 7/3/3 12/12/12 13/13/13 8/5/5
f 8/5/5 13/13/13 14/14/14 9/7/7
f 9/7/7 14/14/14 15/15/15 10/9/9
f 11/11/11 16/16/16 17/17/17 12/12/12
f 12/12/12 17/17/17 18/18/18 13/13/13
f 13/13/13 18/18/18 19/19/19 14/14/14
f 14/14/14 19/19/19 20/20/20 15/15/15
f 16/16/16 21/21/21 22/22/22 17/17/17
f 17/17/17 22/22/22 23/23/23 18/18/18
f 18/18/18 23/23/23 24/24/24 19/19/19
f 19/19/19 24/24/24 25/25/25 20/20/20
f 26/26/26 27/27/27 32/28/28 31/29/29
f 27/27/27 28/30/30 33/31/31 32/28/28
f 28/30/30 29/32/32 34/33/33 33/31/31
f 29/32/32 30/34/34 35/35/35 34/33/33
f 31/29/29 32/28/28 36/36/36 40/37/37
f 32/28/28 33/31/31 37/38/38 36/36/36
f 33/31/31 34/33/33 38/39/39 37/38/38
f 34/33/33 35/35/35 39/40/40 38/39/39
f 40/37/37 36/36/36 42/41/41 41/42/42
f 36/36/36 37/38/38 43/43/43 42/41/41
f 37/38/38 44/44/44 43/43/43
f 38/39/39 39/40/40 45/45/45 44/44/44
f 41/42/42 42/41/41 47/46/46 46/47/47
f 42/41/41 43/43/43 48/48/48
f 48/48/48 44/44/44 49/49/49
f 44/44/44 45/45/45 50/50/50 49/49/49
f 1/1/1 2/4/4 52/51/51 51/52/52
f 2/4/4 3/6/6 53/53/53 52/51/51
f 3/6/6 4/8/8 54/54/54 53/53/53
f 4/8/8 5/10/10 55/55/55 54/54/54
f 51/52/52 52/51/51 67/56/56 82/57/57
f 52/51/51 53/53/53 68/58/58 67/56/56
f 53/53/53 54/54/54 69/59/59 68/58/58
f 54/54/54 55/55/55 70/60/60 69/59/59
f 82/57/57 67/56/56 84/61/61 83/62/62
f 67/56/56 68/58/58 85/63/63 84/61/61
f 68/58/58 69/59/59 86/64/64 85/63/63
f 69/59/59 70/60/60 87/65/65 86/64/64
f 83/62/62 84/61/61 27/27/27 26/26/26
f 84/61/61 85/63/63 28/30/30 27/27/27
f 85/63/63 86/64/64 29/32/32 28/30/30
f 86/64/64 87/65/65 30/34/34 29/32/32
f 5/66/10 10/67/9 56/68/66 55/69/55
f 10/67/9 15/70/15 57/71/67 56/68/66
f 15/70/15 20/72/20 58/73/68 57/71/67
f 20/72/20 25/74/25 59/75/69 58/73/68
f 55/69/55 56/68/66 71/76/70 70/77/60
f 56/68/66 57/71/67 72/78/71 71/76/70
f 57/71/67 58/73/68 73/79/72 72/78/71
f 58/73/68 59/75/69 74/80/73 73/79/72
f 70/77/60 71/76/70 88/81/74 87/82/65
f 71/76/70 72/78/71 89/83/75 88/81/74
f 72/78/71 73/79/72 90/84/76 89/83/75
f 73/79/72 74/80/73 91/85/77 90/84/76
f 87/82/65 88/81/74 35/35/35 30/34/34
f 88/81/74 89/83/75 39/40/40 35/35/35
f 89/83/75 45/45/45 39/40/40
f 90/84/76 91/85/77 50/50/50 45/45/45
f 25/74/25 24/86/24 60/87/78 59/75/69
f 24/86/24 23/88/23 61/89/79 60/87/78
f 23/88/23 22/90/22 62/91/80 61/89/79
f 22/90/22 21/92/21 63/93/81 62/91/80
f 59/75/69 60/87/78 75/94/82 74/80/73
f 60/87/78 61/89/79 76/95/83 75/94/82
f 61/89/79 62/91/80 77/96/84 76/95/83
f 62/91/80 63/93/81 78/97/85 77/96/84
f 74/80/73 75/94/82 92/98/86 91/85/77
f 75/94/82 76/95/83 93/99/87 92/98/86
f 76/95/83 77/96/84 94/100/88 93/99/87
f 77/96/84 78/97/85 95/101/89 94/100/88
f 91/85/77 92/98/86 49/49/49 50/50/50
f 92/98/86 93/99/87 48/48/48 49/49/49
f 93/99/87 94/100/88 47/46/46 48/48/48
f 94/100/88 95/101/89 46/47/47 47/46/46
f 21/21/21 16/16/16 64/102/90 63/103/81
f 16/16/16 11/11/11 65/104/91 64/102/90
f 11/11/11 6/2/2 66/105/92 65/104/91
f 6/2/2 1/1/1 51/52/52 66/105/92
f 63/103/81 64/102/90 79/106/93 78/107/85
f 64/102/90 65/104/91 80/108/94 79/106/93
f 65/104/91 66/105/92 81/109/95 80/108/94
f 66/105/92 51/52/52 82/57/57 81/109/95
f 78/107/85 79/106/93 96/110/96 95/111/89
f 79/106/93 80/108/94 97/112/97 96/110/96
f 80/108/94 81/109/95 98/113/98 97/112/97
f 81/109/95 82/57/57 83/62/62 98/113/98
f 95/111/89 96/110/96 41/42/42 46/47/47
f 96/110/96 97/112/97 40/37/37 41/42/42
f 97/112/97 98/113/98 31/29/29 40/37/37
f 98/113/98 83/62/62 26/26/26 31/29/29
f 89/83/75 90/84/76 45/45/45
f 43/43/43 44/44/44 48/48/48
f 42/41/41 48/48/48 47/46/46
f 37/38/38 38/39/39 44/44/44
