# This file uses centimeters as units for non-parametric coordinates.

g default
v -0.702914 -0.517294 0.820318
v -0.378471 -0.562181 0.914777
v 0.357426 -0.464947 0.810216
v 0.600335 -0.300445 0.595666
v -1.160333 -0.624366 -0.160224
v -0.788574 -0.887195 -0.195591
v -0.378982 -0.990801 -0.254582
v 0.382836 -0.722862 -0.178905
v 0.743723 -0.492002 -0.182628
v -1.078668 -0.473934 -0.635335
v -0.692337 -0.583249 -0.793477
v -0.327801 -0.597249 -0.811319
v 0.361705 -0.501704 -0.753545
v 0.646474 -0.372330 -0.672499
v -1.012891 0.727830 0.654605
v -0.882654 1.259558 -0.161052
v -0.477060 1.382715 -0.164436
v 0.356622 1.173638 -0.139186
v -1.005964 -0.380259 0.646531
v -1.126673 0.386666 0.773231
v -0.794945 0.370728 1.058303
v -0.398939 0.436568 1.143209
v 0.429124 0.468055 1.087566
v 0.808687 0.433833 0.837307
v 0.819867 0.426364 -0.159070
v 0.807049 0.402539 -0.737401
v 0.465917 0.378791 -1.056927
v -0.435019 0.369022 -1.096610
v -0.806471 0.361831 -0.964088
v -1.124971 0.335341 -0.680598
v -1.435927 0.383543 -0.200703
v -0.705622 0.839683 0.798025
v -0.400726 1.001457 0.955023
v 0.263175 0.884701 0.788733
v 0.633980 0.827949 0.695765
v 0.662762 0.900617 -0.103411
v 0.534087 0.774116 -0.528010
v 0.269256 0.818568 -0.664431
v -0.441846 0.981937 -0.890545
v -0.791837 0.896007 -0.773995
v -1.067513 0.742625 -0.557632
v -1.128150 0.868433 -0.120217
vt 0.823307 0.822935
vt 0.813043 0.801398
vt 0.835958 0.749407
vt 0.866176 0.764695
vt 0.830139 0.843386
vt 0.891310 0.784270
vt 0.845434 0.889499
vt 0.923651 0.843099
vt 0.856982 0.914604
vt 0.942399 0.873827
vt 0.844521 0.709675
vt 0.896424 0.722796
vt 0.929279 0.747971
vt 0.968642 0.811726
vt 0.980095 0.838886
vt 0.746424 0.808524
vt 0.739671 0.832236
vt 0.699221 0.783287
vt 0.717944 0.761353
vt 0.733709 0.854587
vt 0.685321 0.806920
vt 0.718628 0.896866
vt 0.660951 0.853951
vt 0.700137 0.927220
vt 0.644306 0.876542
vt 0.665416 0.750432
vt 0.696073 0.724646
vt 0.649158 0.774926
vt 0.626733 0.824845
vt 0.621911 0.847888
vt 0.772373 0.834433
vt 0.768790 0.807272
vt 0.768102 0.859689
vt 0.759870 0.912235
vt 0.759261 0.944876
vt 0.661196 0.960892
vt 0.571457 0.974678
vt 0.522398 0.901819
vt 0.605024 0.890586
vt 0.520936 0.845709
vt 0.585966 0.849874
vt 0.512371 0.811103
vt 0.584232 0.819789
vt 0.524681 0.737795
vt 0.608243 0.755518
vt 0.541606 0.705188
vt 0.627336 0.729030
vt 0.567966 0.672244
vt 0.648733 0.699495
vt 0.752803 0.740212
vt 0.743491 0.700071
vn -0.441476 -0.856199 0.268370
vn -0.437017 -0.808664 0.393800
vn -0.586819 -0.797118 0.142293
vn -0.316191 -0.942628 0.107128
vn -0.350225 -0.895996 0.273008
vn -0.023619 -0.998860 -0.041489
vn 0.666411 -0.672277 0.322398
vn 0.523318 -0.832718 -0.180883
vn 0.783198 -0.526752 0.330353
vn 0.555861 -0.826931 -0.084877
vn -0.625164 -0.713936 -0.315383
vn -0.260962 -0.872067 -0.414003
vn 0.108312 -0.872206 -0.476996
vn 0.354474 -0.894581 -0.272164
vn 0.630693 -0.760895 -0.152530
vn -0.649799 0.539120 0.535828
vn -0.620347 0.741948 0.254328
vn -0.570127 0.794905 -0.207562
vn -0.850752 0.503062 -0.152148
vn -0.292339 0.938129 0.185613
vn -0.102098 0.950326 -0.294034
vn 0.587879 0.799922 0.120514
vn 0.534994 0.777574 -0.330395
vn 0.607414 0.793182 -0.043703
vn 0.643176 0.724215 -0.248671
vn -0.502762 0.709358 -0.494007
vn -0.719925 0.586285 -0.371455
vn 0.020045 0.855162 -0.517974
vn 0.405314 0.722046 -0.560687
vn 0.524140 0.709205 -0.471493
vn -0.433699 0.283750 0.855214
vn -0.628482 0.267329 0.730442
vn -0.160921 0.172331 0.971806
vn 0.390586 0.306405 0.868077
vn 0.653648 0.081329 0.752416
vn 0.964324 0.262689 -0.032772
vn 0.897079 0.343431 -0.278036
vn 0.413461 0.327512 -0.849580
vn -0.266148 -0.156316 -0.951173
vn -0.500382 -0.033700 -0.865148
vn -0.645742 0.062781 -0.760971
vn -0.879577 0.403611 -0.251877
s 1
g polySurface4 polySurface1
f 1/1/1 19/2/2 5/3/3 6/4/4
f 2/5/5 1/1/1 6/4/4 7/6/6
f 3/7/7 2/5/5 7/6/6 8/8/8
f 4/9/9 3/7/7 8/8/8 9/10/10
f 5/3/3 10/11/11 11/12/12 6/4/4
f 6/4/4 11/12/12 12/13/13 7/6/6
f 7/6/6 12/13/13 13/14/14 8/8/8
f 8/8/8 13/14/14 14/15/15 9/10/10
f 15/16/16 32/17/17 16/18/18 42/19/19
f 32/17/17 33/20/20 17/21/21 16/18/18
f 17/21/21 33/20/20 34/22/22 18/23/23
f 34/22/22 35/24/24 36/25/25 18/23/23
f 42/19/19 16/18/18 40/26/26 41/27/27
f 16/18/18 17/21/21 39/28/28 40/26/26
f 39/28/28 17/21/21 18/23/23 38/29/29
f 18/23/23 36/25/25 37/30/30 38/29/29
f 19/2/2 1/1/1 21/31/31 20/32/32
f 1/1/1 2/5/5 22/33/33 21/31/31
f 22/33/33 2/5/5 3/7/7 23/34/34
f 3/7/7 4/9/9 24/35/35 23/34/34
f 20/32/32 21/31/31 32/17/17 15/16/16
f 21/31/31 22/33/33 33/20/20 32/17/17
f 33/20/20 23/34/34 34/22/22
f 23/34/34 24/35/35 35/24/24 34/22/22
f 24/36/35 4/37/9 9/38/10 25/39/36
f 9/38/10 14/40/15 26/41/37 25/39/36
f 35/24/24 24/36/35 25/39/36 36/25/25
f 25/39/36 26/41/37 37/30/30 36/25/25
f 14/40/15 13/42/14 27/43/38 26/41/37
f 27/43/38 13/42/14 12/44/13 28/45/39
f 12/44/13 11/46/12 29/47/40 28/45/39
f 11/46/12 10/48/11 30/49/41 29/47/40
f 26/41/37 27/43/38 38/29/29 37/30/30
f 38/29/29 27/43/38 39/28/28
f 28/45/39 29/47/40 40/26/26 39/28/28
f 29/47/40 30/49/41 41/27/27 40/26/26
f 10/11/11 5/3/3 31/50/42 30/51/41
f 31/50/42 5/3/3 19/2/2 20/32/32
f 30/51/41 31/50/42 42/19/19 41/27/27
f 42/19/19 31/50/42 20/32/32 15/16/16
f 39/28/28 27/43/38 28/45/39
f 33/20/20 22/33/33 23/34/34
