# This file uses centimeters as units for non-parametric coordinates.

g default
v 0.054193 0.484307 1.991287
v -0.010682 -0.489715 1.798848
v -1.245828 0.447405 -1.330313
v -1.293202 0.447405 -1.282939
v -1.245828 0.494780 -1.282939
v 0.693870 0.383232 -1.375375
v 0.694332 0.430457 -1.328000
v -1.245828 -0.500187 -1.282939
v -1.293202 -0.452813 -1.282939
v -1.245828 -0.452813 -1.330313
v 0.670817 -0.500029 -1.328000
v 0.671308 -0.452813 -1.375375
v -1.293202 0.447405 1.486475
v -1.248841 0.494435 1.503096
v 1.148102 0.494356 2.248537
v 1.194215 0.447405 2.259382
v 1.146841 0.447405 -1.299670
v 1.146841 0.494780 -1.252295
v 1.194215 0.447405 -1.252295
v 1.146841 -0.500187 -1.252295
v 1.146841 -0.452813 -1.299670
v 1.194215 -0.452813 -1.252295
v -1.247176 -0.499812 1.497686
v -1.293202 -0.452813 1.486475
v 1.149965 -0.499803 2.242468
v 1.194215 -0.452813 2.259382
vt 0.628425 0.746545
vt 0.610853 0.692344
vt 0.687914 0.664745
vt 0.714043 0.696046
vt 0.746150 0.827994
vt 0.667765 0.855341
vt 0.647480 0.801903
vt 0.742417 0.790121
vt 0.732444 0.723338
vt 0.635174 0.758366
vt 0.644977 0.787832
vt 0.743384 0.752455
vt 0.756924 0.706897
vt 0.756551 0.708882
vt 0.733677 0.724689
vt 0.710541 0.645461
vt 0.735162 0.675552
vt 0.687324 0.662987
vt 0.609637 0.690722
vt 0.600648 0.665412
vt 0.678273 0.637756
vt 0.603093 0.755412
vt 0.583946 0.701404
vt 0.609059 0.692829
vt 0.626509 0.747252
vt 0.633461 0.759161
vt 0.608611 0.769316
vt 0.743178 0.750432
vt 0.644085 0.786023
vt 0.635309 0.760367
vt 0.583302 0.699449
vt 0.668075 0.857299
vt 0.746494 0.829993
vt 0.666100 0.856394
vt 0.645558 0.802542
vt 0.643011 0.787859
vt 0.609396 0.771175
vt 0.708529 0.645281
vn 0.000843 0.922213 -0.386681
vn -0.362498 0.855307 -0.370196
vn -0.458246 0.574002 0.678625
vn -0.227526 0.677635 0.699316
vn -0.443999 -0.613328 0.653218
vn -0.371626 -0.853209 -0.365963
vn 0.024793 -0.924337 -0.380772
vn -0.201632 -0.736309 0.645905
vn 0.030301 0.647857 0.761159
vn 0.360814 0.855607 -0.371147
vn 0.396573 -0.843528 -0.362201
vn 0.046447 -0.682740 0.729183
vn 0.768749 -0.377906 0.515958
vn 0.767006 0.379318 0.517514
vn -0.862380 0.297523 0.409610
vn -0.856409 0.363572 -0.366577
vn -0.855361 -0.365761 -0.366846
vn -0.860254 -0.303093 0.409996
vn 0.063156 -0.383467 -0.921393
vn -0.376892 -0.365566 -0.851067
vn -0.371073 0.366646 -0.853156
vn 0.044089 0.383503 -0.922487
vn 0.411348 0.360598 -0.837115
vn 0.433356 -0.357074 -0.827466
vn 0.856472 -0.363462 -0.366539
vn 0.855285 0.365926 -0.366858
s 1
g polySurface88 polySurface13
f 7/1/1 5/2/2 14/3/3 1/4/4
f 23/5/5 8/6/6 11/7/7 2/8/8
f 1/4/4 15/9/9 18/10/10 7/1/1
f 2/8/8 11/7/7 20/11/11 25/12/12
f 15/9/9 25/13/12 26/14/13 16/15/14
f 14/3/3 23/16/5 2/17/8 1/4/4
f 13/18/15 4/19/16 9/20/17 24/21/18
f 12/22/19 10/23/20 3/24/21 6/25/22
f 6/25/22 17/26/23 21/27/24 12/22/19
f 26/28/13 22/29/25 19/30/26 16/15/14
f 4/19/16 3/24/21 10/23/20 9/31/17
f 5/2/2 4/19/16 13/18/15 14/3/3
f 3/24/21 5/2/2 7/1/1 6/25/22
f 6/25/22 7/1/1 18/10/10 17/26/23
f 9/32/17 8/6/6 23/5/5 24/33/18
f 8/6/6 10/34/20 12/35/19 11/7/7
f 11/7/7 12/35/19 21/36/24 20/11/11
f 15/9/9 16/15/14 19/30/26 18/10/10
f 17/26/23 19/30/26 22/37/25 21/27/24
f 20/11/11 22/29/25 26/28/13 25/12/12
f 3/24/21 4/19/16 5/2/2
f 8/6/6 9/32/17 10/34/20
f 17/26/23 18/10/10 19/30/26
f 20/11/11 21/36/24 22/29/25
f 24/38/18 23/16/5 14/3/3 13/18/15
f 1/4/4 2/17/8 25/13/12 15/9/9
