# This file uses centimeters as units for non-parametric coordinates.

g default
v 1.675420 1.794198 -0.520929
v 0.895778 0.929849 0.868199
v -1.867304 1.794198 0.111886
v -1.382073 0.000000 -0.885706
v 1.675420 1.794198 -1.075238
v -1.758172 0.088425 0.868199
v -1.823233 -0.000000 0.779986
v 1.675420 0.069098 0.793353
v 1.586995 0.088425 0.868199
v 1.586995 -0.000000 0.779774
v 1.586995 -0.000000 -1.470323
v 1.586995 0.088425 -1.558748
v 1.675420 0.088425 -1.470323
v -1.775106 0.989471 0.868199
v -1.837391 0.967326 0.800785
v 1.588882 0.454587 0.868199
v 1.675420 0.489019 0.797121
v 1.675420 1.551928 -1.482741
v 1.590051 1.529783 -1.558748
v -1.287739 1.794198 -1.472895
v -1.184375 1.705773 -1.558748
v 0.632368 1.743649 -1.558748
v 0.650558 1.794198 -1.496258
v 0.187661 1.794198 0.789006
v 0.188945 1.710485 0.868199
v -1.219779 1.794198 0.791107
v -1.243249 1.724611 0.868199
v -0.359813 0.064902 -1.558748
v -0.418920 0.000000 -1.510619
v -1.271510 0.535460 -1.492415
v -1.180914 0.603547 -1.558748
v 1.020882 0.149656 0.868199
v 0.924939 0.061231 0.779815
vt 0.895926 0.702807
vt 0.955818 0.697119
vt 0.913249 0.728489
vt 0.902958 0.717820
vt 0.797926 0.710719
vt 0.772817 0.697268
vt 0.773342 0.694060
vt 0.804004 0.684111
vt 0.806446 0.686962
vt 0.820600 0.554342
vt 0.884929 0.551129
vt 0.891197 0.623298
vt 0.869475 0.625129
vt 0.820149 0.751944
vt 0.785624 0.768110
vt 0.832358 0.788551
vt 0.824506 0.754567
vt 0.877979 0.739398
vt 0.862532 0.798752
vt 0.744953 0.708095
vt 0.763200 0.757201
vt 0.846676 0.679520
vt 0.877631 0.736805
vt 0.910478 0.731632
vt 0.923374 0.778365
vt 0.869074 0.653846
vt 0.872880 0.629017
vt 0.891695 0.627330
vt 0.893800 0.640284
vt 0.784435 0.662459
vt 0.846535 0.676001
vt 0.829414 0.791697
vt 0.861347 0.801819
vt 0.746221 0.703786
vt 0.904970 0.632120
vt 0.906728 0.635016
vt 0.896398 0.643264
vt 0.909582 0.632775
vt 0.959038 0.694571
vt 0.925009 0.781938
vt 0.927259 0.777939
vt 0.826820 0.818364
vt 0.782500 0.634019
vt 0.780076 0.630216
vt 0.790881 0.576225
vn 0.765174 0.553941 0.328113
vn 0.935445 -0.251934 -0.247935
vn 0.650828 0.513224 -0.559485
vn 0.534132 0.815840 -0.221604
vn -0.885529 0.464536 0.006785
vn -0.971751 0.092939 0.216939
vn -0.400308 0.133406 0.906618
vn -0.244433 0.454370 0.856621
vn -0.184874 0.913219 0.363114
vn -0.157383 -0.849136 -0.504181
vn 0.352942 -0.857605 -0.374094
vn 0.278528 -0.875648 0.394541
vn -0.015533 -0.919150 0.393603
vn -0.432133 0.749911 -0.500894
vn -0.721229 -0.272147 -0.636997
vn -0.317810 -0.149471 -0.936299
vn -0.236893 0.274173 -0.932047
vn 0.049284 0.425511 -0.903610
vn -0.071473 -0.289029 -0.954649
vn -0.636553 -0.652590 0.411007
vn -0.742413 -0.571307 -0.349901
vn 0.160773 0.912095 0.377141
vn 0.081005 0.925284 -0.370523
vn 0.339834 0.310390 -0.887790
vn 0.361335 -0.353482 -0.862837
vn 0.217152 0.255767 0.942034
vn -0.014217 -0.378471 0.925504
vn 0.275623 -0.377054 0.884230
vn 0.391647 0.234228 0.889803
vn 0.210833 0.456847 0.864199
vn -0.292610 -0.285845 0.912508
vn 0.806750 -0.415929 0.419711
vn 0.892488 0.185034 0.411372
s 1
g polySurface58 polySurface57
f 1/1/1 13/2/2 18/3/3 5/4/4
f 3/5/5 15/6/6 14/7/7 27/8/8 26/9/9
f 29/10/10 11/11/11 10/12/12 33/13/13
f 20/14/14 30/15/15 3/5/5
f 31/16/16 21/17/17 22/18/18 28/19/19
f 7/20/20 15/6/6 4/21/21
f 26/9/9 24/22/22 23/23/23 20/14/14
f 19/24/24 12/25/25 28/19/19 22/18/18
f 2/26/26 32/27/27 9/28/28 16/29/29
f 14/30/7 2/26/26 25/31/30 27/8/8
f 18/3/3 19/24/24 22/18/18 23/23/23
f 23/23/23 24/22/22 1/1/1 5/4/4
f 24/22/22 25/31/30 2/26/26 1/1/1
f 26/9/9 20/14/14 3/5/5
f 30/15/15 4/21/21 15/6/6 3/5/5
f 30/32/15 31/16/16 28/19/19 29/33/10
f 7/20/20 6/34/31 14/7/7 15/6/6
f 32/27/27 33/13/13 10/12/12 9/28/28
f 9/35/28 8/36/32 17/37/33 16/29/29
f 8/36/32 10/38/12 11/39/11 13/2/2
f 12/25/25 11/40/11 29/33/10 28/19/19
f 13/41/2 12/25/25 19/24/24 18/3/3
f 21/17/17 20/14/14 23/23/23 22/18/18
f 20/14/14 21/17/17 31/16/16 30/32/15
f 25/31/30 24/22/22 26/9/9 27/8/8
f 8/36/32 9/35/28 10/38/12
f 11/40/11 12/25/25 13/41/2
f 30/32/15 29/33/10 4/42/21
f 18/3/3 23/23/23 5/4/4
f 1/1/1 2/26/26 16/29/29 17/37/33
f 14/30/7 6/43/31 32/27/27 2/26/26
f 6/43/31 7/44/20 33/13/13 32/27/27
f 29/10/10 33/13/13 7/44/20 4/45/21
f 17/37/33 13/2/2 1/1/1
f 8/36/32 13/2/2 17/37/33
