# This file uses centimeters as units for non-parametric coordinates.

g default
v -1.387987 -0.463340 2.372081
v -1.351141 -0.500187 2.372081
v -1.351141 -0.463340 2.408927
v 1.062585 -0.500187 2.372081
v 1.099431 -0.463340 2.372081
v 1.062585 -0.463340 2.408927
v -1.351141 0.494780 2.372081
v -1.387987 0.457933 2.372081
v -1.351141 0.457933 2.408927
v 1.099431 0.457933 2.372081
v 1.062585 0.494780 2.372081
v 1.062585 0.457933 2.408927
v -1.351141 0.457933 -1.322201
v -1.387987 0.457933 -1.285354
v -1.351141 0.494780 -1.285354
v 1.099431 0.457933 -1.285354
v 1.062585 0.457933 -1.322201
v 1.062585 0.494780 -1.285354
v -1.351141 -0.500187 -1.285354
v -1.387987 -0.463340 -1.285354
v -1.351141 -0.463340 -1.322201
v 1.099431 -0.463340 -1.285354
v 1.062585 -0.500187 -1.285354
v 1.062585 -0.463340 -1.322201
vt 0.519941 0.790835
vt 0.517928 0.862357
vt 0.409373 0.859281
vt 0.411356 0.787764
vt 0.385707 0.683502
vt 0.413296 0.685066
vt 0.410970 0.757191
vt 0.382079 0.756552
vt 0.411903 0.758574
vt 0.521000 0.761696
vt 0.520381 0.789298
vt 0.411005 0.786199
vt 0.524244 0.660051
vt 0.523388 0.687539
vt 0.414330 0.683756
vt 0.415382 0.656271
vt 0.414822 0.685305
vt 0.522769 0.689041
vt 0.520488 0.760153
vt 0.412512 0.757067
vt 0.524304 0.688951
vt 0.551514 0.689614
vt 0.549186 0.761445
vt 0.522015 0.760366
vt 0.409828 0.787299
vt 0.407815 0.859657
vt 0.382051 0.758098
vt 0.408932 0.860819
vt 0.518278 0.863923
vt 0.385808 0.681902
vt 0.549111 0.763056
vt 0.551536 0.688026
vt 0.521498 0.790459
vt 0.519456 0.862823
vn -0.367003 -0.854763 -0.367001
vn 0.367002 -0.854763 -0.367002
vn 0.367001 -0.854763 0.367002
vn -0.367002 -0.854763 0.367001
vn 0.367000 -0.367001 0.854764
vn 0.367000 0.367001 0.854764
vn -0.367002 0.367001 0.854763
vn -0.367002 -0.367001 0.854763
vn -0.854764 0.367000 0.367000
vn -0.854765 0.366999 -0.366999
vn -0.854765 -0.366999 -0.366999
vn -0.854764 -0.367000 0.367000
vn 0.854764 -0.367000 -0.367001
vn 0.854764 0.367000 -0.367001
vn 0.854763 0.367001 0.367002
vn 0.854763 -0.367001 0.367002
vn 0.367001 0.854763 0.367002
vn 0.367002 0.854763 -0.367002
vn -0.367003 0.854763 -0.367001
vn -0.367002 0.854763 0.367001
vn 0.367001 0.367000 -0.854764
vn 0.367001 -0.367000 -0.854764
vn -0.367003 -0.367001 -0.854763
vn -0.367003 0.367001 -0.854763
s 1
g polySurface89 polySurface13
f 19/1/1 23/2/2 4/3/3 2/4/4
f 6/5/5 12/6/6 9/7/7 3/8/8
f 8/9/9 14/10/10 20/11/11 1/12/12
f 22/13/13 16/14/14 10/15/15 5/16/16
f 11/17/17 18/18/18 15/19/19 7/20/20
f 17/21/21 24/22/22 21/23/23 13/24/24
f 2/4/4 1/12/12 20/11/11 19/1/1
f 3/25/8 2/4/4 4/3/3 6/26/5
f 1/27/12 3/8/8 9/7/7 8/9/9
f 5/28/16 4/3/3 23/2/2 22/29/13
f 6/5/5 5/30/16 10/15/15 12/6/6
f 8/9/9 7/20/20 15/19/19 14/10/10
f 7/20/20 9/7/7 12/6/6 11/17/17
f 11/17/17 10/15/15 16/14/14 18/18/18
f 14/10/10 13/24/24 21/23/23 20/31/11
f 13/24/24 15/19/19 18/18/18 17/21/21
f 17/21/21 16/14/14 22/32/13 24/22/22
f 19/1/1 21/33/23 24/34/22 23/2/2
f 1/12/12 2/4/4 3/25/8
f 4/3/3 5/28/16 6/26/5
f 7/20/20 8/9/9 9/7/7
f 10/15/15 11/17/17 12/6/6
f 13/24/24 14/10/10 15/19/19
f 16/14/14 17/21/21 18/18/18
f 19/1/1 20/11/11 21/33/23
f 22/29/13 23/2/2 24/34/22
