# This file uses centimeters as units for non-parametric coordinates.

g default
v -4.378708 1.900867 -1.251398
v -4.378708 1.830327 -1.321938
v -4.449248 1.830327 -1.251398
v -4.378708 1.830327 1.307988
v -4.378708 1.900867 1.237448
v -4.449248 1.830327 1.237448
v 4.449248 1.830327 -1.251398
v 4.378708 1.830327 -1.321938
v 4.378708 1.900867 -1.251398
v 4.378708 1.830327 1.307988
v 4.449248 1.830327 1.237448
v 4.378708 1.900867 1.237448
v -4.378708 0.496550 -1.251398
v -4.449248 0.567091 -1.251398
v -4.378708 0.567091 -1.321938
v -4.449248 0.567091 1.237448
v -4.378708 0.496550 1.237448
v -4.378708 0.567091 1.307988
v 4.449248 0.567091 -1.251398
v 4.378708 0.496550 -1.251398
v 4.378708 0.567091 -1.321938
v 4.378708 0.496550 1.237448
v 4.449248 0.567091 1.237448
v 4.378708 0.567091 1.307988
v 4.449248 0.567091 -1.064071
v 4.378708 0.426010 -1.039747
v 4.378708 0.496550 -1.110288
v 4.378708 0.426010 1.025797
v 4.449248 0.567091 1.050121
v 4.378708 0.496550 1.096338
v -4.449248 0.567091 1.050121
v -4.378708 0.426010 1.025797
v -4.378708 0.496550 1.096338
v -4.378708 0.426010 -1.039747
v -4.449248 0.567091 -1.064071
v -4.378708 0.496550 -1.110288
v 4.378708 -0.205609 -0.969207
v 4.378708 -0.135068 -1.039747
v 4.449248 -0.135068 -0.969207
v 4.378708 -0.135068 1.025797
v 4.378708 -0.205609 0.955257
v 4.449248 -0.135068 0.955257
v -4.449248 -0.135068 0.955257
v -4.378708 -0.205609 0.955257
v -4.378708 -0.135068 1.025797
v -4.378708 -0.135068 -1.039747
v -4.378708 -0.205609 -0.969207
v -4.449248 -0.135068 -0.969207
v -4.449248 0.441685 -0.969207
v -4.449248 0.441686 0.955257
v 4.449248 0.441685 0.955257
v 4.449248 0.441686 -0.969207
v -4.449248 0.190117 -0.969207
v -4.449248 0.190117 0.955257
v -4.378708 0.182768 1.025797
v 4.378708 0.182768 1.025797
v 4.449248 0.190117 0.955257
v 4.449248 0.190117 -0.969207
v 4.378708 0.182768 -1.039747
v -4.378708 0.182768 -1.039747
v 2.945952 0.182768 -1.039747
v 2.945952 0.426010 -1.039747
v 2.945952 0.496550 -1.110288
v 2.945952 0.496550 -1.279275
v 2.945952 0.567091 -1.349816
v 2.945952 1.830327 -1.321938
v 2.945952 1.900867 -1.251398
v 2.945952 1.900867 1.237448
v 2.945952 1.830327 1.307988
v 2.945952 0.567091 1.349816
v 2.945952 0.496550 1.279275
v 2.945952 0.496550 1.096338
v 2.945952 0.426010 1.025797
v 2.945952 0.182768 1.025797
v 2.945952 -0.135068 1.025797
v 2.945952 -0.205609 0.955257
v 2.945952 -0.205609 -0.941324
v 2.945952 -0.135068 -1.011865
v -3.115806 0.182768 -1.069626
v -3.115806 0.426010 -1.069626
v -3.115806 0.496550 -1.110288
v -3.115806 0.496550 -1.251398
v -3.115806 0.567091 -1.321938
v -3.115806 1.787193 -1.321938
v -3.115806 1.857734 -1.251398
v -3.115806 1.900867 1.177003
v -3.115806 1.830327 1.247543
v -3.115806 0.567091 1.307988
v -3.115806 0.496550 1.237447
v -3.115806 0.496550 1.096338
v -3.115806 0.426010 1.025797
v -3.115806 0.182768 1.025797
v -3.115806 -0.135068 1.025797
v -3.115806 -0.205609 0.955257
v -3.115806 -0.155011 -0.969207
v -3.115806 -0.084470 -1.039747
v -0.068577 0.567091 -1.321938
v -0.068577 1.830327 -1.236710
v -0.068577 1.900867 -1.166169
v -0.068577 1.900867 1.177003
v -0.068577 1.830327 1.247543
v -0.068577 0.567091 1.307988
v -0.068577 0.496550 1.237447
v -0.068577 0.496550 1.096338
v -0.068577 0.426010 1.025797
v -0.068577 0.182768 1.025797
v -0.068577 -0.135068 1.025797
v -0.068577 -0.205609 0.955257
v -0.068577 -0.205609 -0.969207
v -0.068577 -0.135068 -1.039747
v -0.068577 0.182768 -1.039747
v -0.068577 0.426010 -1.039747
v -0.068577 0.496550 -1.110288
v -0.068577 0.496550 -1.251398
vt 0.339953 0.416898
vt 0.004971 0.463859
vt 0.293891 0.362819
vt 0.340791 0.363251
vt 0.008424 0.417237
vt 0.008593 0.463519
vt 0.290218 0.362782
vt 0.007548 0.466917
vt 0.293779 0.250148
vt 0.340518 0.250187
vt 0.344498 0.363225
vt 0.343678 0.416960
vt 0.290099 0.250128
vt 0.293103 0.136858
vt 0.337847 0.137441
vt 0.344205 0.250164
vt 0.289413 0.136798
vt 0.294536 0.090522
vt 0.006541 0.085516
vt 0.341518 0.137503
vt 0.007373 0.036136
vt 0.009990 0.084816
vt 0.008565 0.039495
vt 0.009684 0.088328
vt 0.344110 0.091893
vt 0.015394 0.038759
vt 0.093532 0.036435
vt 0.100962 0.083204
vt 0.004950 0.039300
vt 0.018824 0.033953
vt 0.089837 0.031789
vt 0.100423 0.036797
vt 0.104314 0.463227
vt 0.101348 0.086757
vt 0.100032 0.413318
vt 0.012748 0.035406
vt 0.015201 0.032916
vt 0.018654 0.024605
vt 0.089395 0.022372
vt 0.093390 0.030536
vt 0.095976 0.032930
vt 0.101419 0.033384
vt 0.104418 0.083796
vt 0.104041 0.036412
vt 0.014849 0.024267
vt 0.018459 0.012885
vt 0.088789 0.010588
vt 0.093153 0.021769
vt 0.015028 0.011981
vt 0.088942 0.006981
vt 0.018061 0.009301
vt 0.092144 0.009447
vt 0.099509 0.360616
vt 0.262235 0.136377
vt 0.008032 0.413689
vt 0.007600 0.360271
vt 0.103157 0.360640
vt 0.103698 0.413259
vt 0.004973 0.416623
vt 0.099753 0.416846
vt 0.098953 0.248496
vt 0.011851 0.247785
vt 0.102649 0.248533
vt 0.099831 0.134080
vt 0.009724 0.134479
vt 0.103542 0.134082
vt 0.257039 0.249860
vt 0.273417 0.089981
vt 0.105008 0.086783
vt 0.148991 0.360720
vt 0.149605 0.413095
vt 0.103210 0.416150
vt 0.188145 0.088481
vt 0.152612 0.360744
vt 0.153285 0.413150
vt 0.187517 0.135199
vt 0.100700 0.462967
vt 0.149491 0.248851
vt 0.340401 0.091749
vt 0.153178 0.248869
vt 0.150545 0.134593
vt 0.184453 0.088376
vt 0.154233 0.134634
vt 0.151425 0.087599
vt 0.186423 0.249078
vt 0.155111 0.087647
vt 0.183836 0.135129
vt 0.093828 0.463557
vt 0.015466 0.463995
vt 0.172855 0.088068
vt 0.186803 0.361081
vt 0.090293 0.468314
vt 0.019091 0.468709
vt 0.185937 0.413661
vt 0.101810 0.466346
vt 0.096395 0.466972
vt 0.093890 0.469438
vt 0.090220 0.477721
vt 0.019328 0.478118
vt 0.015516 0.469884
vt 0.012971 0.467456
vt 0.182755 0.249048
vt 0.094004 0.478171
vt 0.090089 0.489500
vt 0.019638 0.489897
vt 0.015554 0.478624
vt 0.093488 0.490504
vt 0.019389 0.493498
vt 0.090385 0.493101
vt 0.016254 0.490946
vt 0.288997 0.416040
vt 0.283773 0.415968
vt 0.283982 0.362705
vt 0.272196 0.136526
vt 0.280081 0.415902
vt 0.280314 0.362653
vt 0.284898 0.250095
vt 0.172107 0.134917
vt 0.281228 0.250071
vt 0.284179 0.136714
vt 0.182266 0.413603
vt 0.281174 0.136665
vt 0.285766 0.090250
vt 0.290875 0.090405
vt 0.282131 0.090133
vt 0.159259 0.360795
vt 0.158427 0.413248
vt 0.183171 0.361037
vt 0.292712 0.416094
vt 0.162078 0.413302
vt 0.162875 0.360826
vt 0.158403 0.248890
vt 0.171044 0.248962
vt 0.162081 0.248908
vt 0.159461 0.134705
vt 0.170843 0.413420
vt 0.163141 0.134762
vt 0.160288 0.087742
vt 0.171667 0.360909
vt 0.163962 0.087829
vt 0.271145 0.415717
vt 0.271376 0.362511
vt 0.258423 0.089538
vt 0.262077 0.089631
vt 0.259527 0.415481
vt 0.259637 0.362311
vt 0.272320 0.249989
vt 0.258540 0.136324
vt 0.255843 0.415345
vt 0.255966 0.362245
vt 0.260684 0.249886
vn 0.368987 0.369357 -0.852892
vn 0.373235 -0.363363 -0.853617
vn -0.000488 -0.369804 -0.929110
vn -0.007804 0.395544 -0.918414
vn -0.910183 0.292889 -0.292888
vn -0.960932 -0.251384 -0.115830
vn -0.960932 -0.251384 0.115829
vn -0.910183 0.292889 0.292888
vn -0.003836 0.923877 0.382670
vn 0.367003 0.854763 0.367000
vn 0.367003 0.854763 -0.367000
vn -0.005409 0.923874 -0.382658
vn 0.002307 -0.369489 0.929232
vn 0.376353 -0.361539 0.853023
vn 0.369982 0.370537 0.851948
vn -0.004448 0.395836 0.918311
vn 0.910183 0.292889 0.292888
vn 0.960932 -0.251384 0.115830
vn 0.960932 -0.251384 -0.115829
vn 0.910183 0.292889 -0.292888
vn 0.370407 -0.853526 -0.366459
vn 0.414929 -0.834937 -0.361545
vn 0.000000 -0.923880 -0.382684
vn 0.001953 -0.923882 -0.382672
vn -0.000000 -0.923880 0.382683
vn 0.414929 -0.834936 0.361546
vn 0.372110 -0.852905 0.366179
vn 0.002930 -0.923886 0.382657
vn 0.380506 -0.011871 -0.924702
vn -0.001275 -0.021915 -0.999759
vn 0.000000 -0.382683 -0.923880
vn 0.410015 -0.333326 -0.848989
vn 0.000000 -0.382683 0.923880
vn 0.000000 0.000000 1.000000
vn 0.382685 0.000000 0.923879
vn 0.410014 -0.333325 0.848989
vn 0.367004 -0.854762 0.367000
vn -0.000000 -0.923879 0.382684
vn -0.001954 -0.923882 -0.382672
vn 0.363604 -0.855992 -0.367518
vn -0.361038 0.367893 -0.856917
vn -0.367004 -0.367001 -0.854762
vn -0.854766 -0.366999 -0.366998
vn -0.356509 0.857595 -0.370719
vn -0.354766 0.860042 0.366700
vn -0.351799 0.375097 0.857636
vn -0.854766 -0.366999 0.366998
vn -0.362024 -0.362023 0.858998
vn 0.854766 -0.366999 -0.366998
vn 0.854766 -0.366999 0.366998
vn -0.367004 -0.854762 -0.367001
vn -0.422515 -0.818710 -0.388838
vn -0.367004 -0.854762 0.367000
vn -0.414929 -0.834937 0.361545
vn 0.933096 -0.122677 -0.338057
vn 0.923881 0.000000 -0.382681
vn 0.933095 -0.122676 0.338058
vn -0.933096 -0.122677 0.338057
vn -0.410015 -0.333326 0.848989
vn -0.413304 -0.303398 -0.858562
vn -0.933095 -0.122676 -0.338058
vn 0.359590 -0.378758 -0.852782
vn -0.003305 -0.402831 -0.915269
vn 0.854766 -0.366998 -0.366998
vn 0.854766 -0.366999 0.366998
vn 0.367004 -0.367001 0.854762
vn 0.000000 -0.382683 0.923880
vn -0.362562 -0.857709 0.364533
vn -0.854766 -0.366999 0.366998
vn -0.854766 -0.366998 -0.366998
vn -0.354526 -0.857829 -0.372075
vn -0.367004 -0.367001 0.854762
vn -0.360845 -0.380278 -0.851575
vn -0.923880 0.000000 -0.382681
vn -0.923881 0.000000 0.382681
vn 0.923880 0.000000 0.382681
vn -0.390720 -0.013755 -0.920407
vn -0.382686 0.000000 0.923879
vn 0.004726 -0.023712 -0.999708
vn 0.003655 -0.354986 -0.934865
vn 0.001056 -0.912362 -0.409384
vn -0.001769 -0.923879 -0.382681
vn -0.003151 -0.364379 -0.931245
vn -0.004088 0.400866 -0.916128
vn -0.004642 0.923011 -0.384746
vn -0.005723 0.924730 0.380582
vn -0.008348 0.402969 0.915176
vn -0.007309 -0.362205 0.932070
vn -0.002655 -0.923878 0.382678
vn 0.000000 -0.923880 0.382683
vn 0.000000 -0.382683 0.923880
vn 0.000000 0.000000 1.000000
vn 0.000000 -0.382683 0.923880
vn -0.002249 -0.925126 0.379653
vn -0.003649 -0.922611 -0.385714
vn 0.001043 -0.404477 -0.914547
vn -0.005044 -0.025510 -0.999662
vn -0.005104 -0.327614 -0.944798
vn -0.001511 -0.899734 -0.436437
vn -0.000000 -0.923879 -0.382684
vn 0.003730 -0.374781 -0.927106
vn 0.012848 0.390566 -0.920485
vn 0.011838 0.922109 -0.386749
vn 0.011859 0.925526 0.378498
vn 0.015514 0.399130 0.916763
vn 0.006522 -0.366090 0.930557
vn 0.000000 -0.923880 0.382683
vn 0.000000 -0.923880 0.382683
vn 0.000000 -0.382684 0.923880
vn 0.000000 0.000000 1.000000
vn 0.000000 -0.382683 0.923880
vn 0.003182 -0.926360 0.376625
vn 0.007639 -0.921327 -0.388715
vn 0.002748 -0.406089 -0.913829
s 1
g pCube7
f 8/1/1 21/129/2 65/3/3 66/4/4
f 3/22/5 35/26/6 31/27/7 6/28/8
f 68/53/9 12/35/10 9/55/11 67/56/12
f 70/70/13 24/71/14 10/58/15 69/57/16
f 11/60/17 29/88/18 25/89/19 7/5/20
f 20/111/21 27/112/22 63/113/23 64/7/24
f 72/126/25 30/127/26 22/75/27 71/74/28
f 59/141/29 61/142/30 62/116/31 26/115/32
f 73/131/33 74/139/34 56/136/35 28/130/36
f 41/94/37 76/91/38 77/150/39 37/149/40
f 66/4/4 67/11/12 9/12/11 8/1/1
f 3/22/5 2/19/41 15/29/42 14/23/43
f 1/24/44 3/22/5 6/28/8 5/34/45
f 68/53/9 69/57/16 10/58/15 12/35/10
f 4/43/46 6/28/8 16/32/47 18/44/48
f 8/59/1 7/5/20 19/6/49 21/2/2
f 7/5/20 9/55/11 12/35/10 11/60/17
f 11/60/17 10/72/15 24/33/14 23/77/50
f 14/23/43 13/21/51 36/36/52 35/26/6
f 64/7/24 65/3/3 21/129/2 20/111/21
f 17/42/53 16/32/47 31/27/7 33/41/54
f 70/70/13 71/74/28 22/75/27 24/71/14
f 20/8/21 19/6/49 25/89/19 27/101/22
f 23/77/50 22/95/27 30/96/26 29/88/18
f 26/100/32 52/93/55 58/99/56 59/106/29
f 27/112/22 26/115/32 62/116/31 63/113/23
f 28/97/36 51/92/57 29/88/18 30/96/26
f 28/130/36 30/127/26 72/126/25 73/131/33
f 31/27/7 50/31/58 32/40/59 33/41/54
f 34/37/60 49/30/61 35/26/6 36/36/52
f 38/145/62 37/149/40 77/150/39 78/146/63
f 37/108/40 39/105/64 42/104/65 41/109/37
f 41/94/37 40/121/66 75/128/67 76/91/38
f 44/50/68 43/47/69 48/46/70 47/51/71
f 1/24/44 2/19/41 3/22/5
f 4/43/46 5/34/45 6/28/8
f 7/5/20 8/59/1 9/55/11
f 10/72/15 11/60/17 12/35/10
f 13/21/51 14/23/43 15/29/42
f 16/32/47 17/42/53 18/44/48
f 19/6/49 20/8/21 21/2/2
f 22/95/27 23/77/50 24/33/14
f 37/108/40 38/110/62 39/105/64
f 40/107/66 41/109/37 42/104/65
f 43/47/69 44/50/68 45/52/72
f 46/49/73 47/51/71 48/46/70
f 50/31/58 49/30/61 53/38/74 54/39/75
f 52/93/55 51/92/57 57/98/76 58/99/56
f 49/30/61 34/37/60 60/45/77 53/38/74
f 32/40/59 50/31/58 54/39/75 55/48/78
f 51/92/57 28/97/36 56/103/35 57/98/76
f 25/89/19 52/93/55 26/100/32 27/101/22
f 11/60/17 23/77/50 29/88/18
f 25/89/19 29/88/18 51/92/57 52/93/55
f 7/5/20 25/89/19 19/6/49
f 14/23/43 35/26/6 3/22/5
f 31/27/7 35/26/6 49/30/61 50/31/58
f 6/28/8 31/27/7 16/32/47
f 54/39/75 53/38/74 48/46/70 43/47/69
f 55/48/78 54/39/75 43/47/69 45/52/72
f 56/136/35 74/139/34 75/128/67 40/121/66
f 57/98/76 56/103/35 40/107/66 42/104/65
f 58/99/56 57/98/76 42/104/65 39/105/64
f 59/106/29 58/99/56 39/105/64 38/110/62
f 38/145/62 78/146/63 61/142/30 59/141/29
f 53/38/74 60/45/77 46/49/73 48/46/70
f 61/142/30 111/147/79 112/119/80 62/116/31
f 63/113/23 62/116/31 112/119/80 113/117/81
f 64/7/24 63/113/23 113/117/81 114/13/82
f 114/13/82 97/9/83 65/3/3 64/7/24
f 66/4/4 65/3/3 97/9/83 98/10/84
f 98/10/84 99/16/85 67/11/12 66/4/4
f 100/61/86 68/53/9 67/56/12 99/62/85
f 100/61/86 101/63/87 69/57/16 68/53/9
f 102/78/88 70/70/13 69/57/16 101/63/87
f 102/78/88 103/80/89 71/74/28 70/70/13
f 104/132/90 72/126/25 71/74/28 103/80/89
f 73/131/33 72/126/25 104/132/90 105/134/91
f 105/134/91 106/133/92 74/139/34 73/131/33
f 75/128/67 74/139/34 106/133/92 107/102/93
f 76/91/38 75/128/67 107/102/93 108/85/94
f 77/150/39 76/91/38 108/85/94 109/67/95
f 78/146/63 77/150/39 109/67/95 110/151/96
f 61/142/30 78/146/63 110/151/96 111/147/79
f 79/114/97 60/68/77 34/125/60 80/122/98
f 81/120/99 80/122/98 34/125/60 36/123/52
f 82/17/100 81/120/99 36/123/52 13/124/51
f 13/124/51 15/18/42 83/14/101 82/17/100
f 84/15/102 83/14/101 15/18/42 2/79/41
f 2/79/41 1/25/44 85/20/103 84/15/102
f 5/34/45 86/64/104 85/65/103 1/24/44
f 5/34/45 4/69/46 87/66/105 86/64/104
f 18/84/48 88/81/106 87/66/105 4/69/46
f 18/84/48 17/86/53 89/83/107 88/81/106
f 33/138/54 90/135/108 89/83/107 17/86/53
f 91/137/109 90/135/108 33/138/54 32/140/59
f 32/140/59 55/90/78 92/118/110 91/137/109
f 93/87/111 92/118/110 55/90/78 45/82/72
f 94/76/112 93/87/111 45/82/72 44/73/68
f 95/148/113 94/76/112 44/73/68 47/143/71
f 96/54/114 95/148/113 47/143/71 46/144/73
f 79/114/97 96/54/114 46/144/73 60/68/77
f 98/10/84 97/9/83 83/14/101 84/15/102
f 84/15/102 85/20/103 99/16/85 98/10/84
f 86/64/104 100/61/86 99/62/85 85/65/103
f 86/64/104 87/66/105 101/63/87 100/61/86
f 88/81/106 102/78/88 101/63/87 87/66/105
f 88/81/106 89/83/107 103/80/89 102/78/88
f 90/135/108 104/132/90 103/80/89 89/83/107
f 105/134/91 104/132/90 90/135/108 91/137/109
f 91/137/109 92/118/110 106/133/92 105/134/91
f 107/102/93 106/133/92 92/118/110 93/87/111
f 108/85/94 107/102/93 93/87/111 94/76/112
f 109/67/95 108/85/94 94/76/112 95/148/113
f 110/151/96 109/67/95 95/148/113 96/54/114
f 111/147/79 110/151/96 96/54/114 79/114/97
f 112/119/80 111/147/79 79/114/97 80/122/98
f 113/117/81 112/119/80 80/122/98 81/120/99
f 114/13/82 113/117/81 81/120/99 82/17/100
f 82/17/100 83/14/101 97/9/83 114/13/82
