# This file uses centimeters as units for non-parametric coordinates.

g default
v 1.434037 -0.400316 -3.511147
v 1.323153 -0.511201 -3.511147
v 1.323153 -0.400316 -3.622031
v -1.335015 -0.511201 -3.511147
v -1.445899 -0.400316 -3.511147
v -1.335015 -0.400316 -3.622031
v 1.323153 0.511201 -3.511147
v 1.434037 0.400316 -3.511147
v 1.323153 0.400316 -3.622031
v -1.445899 0.400316 -3.511147
v -1.335015 0.511201 -3.511147
v -1.335015 0.400316 -3.622031
v 1.323153 0.400316 3.622031
v 1.434037 0.400316 3.511147
v 1.323153 0.511201 3.511147
v -1.445899 0.400316 3.511147
v -1.335015 0.400316 3.622031
v -1.335015 0.511201 3.511147
v 1.323153 -0.511201 3.511147
v 1.434037 -0.400316 3.511147
v 1.323153 -0.400316 3.622031
v -1.445899 -0.400316 3.511147
v -1.335015 -0.511201 3.511147
v -1.335015 -0.400316 3.622031
v -1.402646 -0.505844 0.284931
v 1.393898 -0.493002 1.628330
v 1.378820 0.387691 1.707915
v 1.490946 -0.372703 1.684976
v -1.330162 0.397899 0.128042
v -1.490946 -0.381513 0.215670
v -1.197326 0.489458 0.173030
v 1.250714 0.478015 1.657624
vt 0.305096 0.735272
vt 0.304974 0.817435
vt 0.202590 0.817434
vt 0.246649 0.735272
vt 0.057759 0.851154
vt 0.081241 0.851627
vt 0.081264 0.932624
vt 0.057770 0.933181
vt 0.085808 0.937843
vt 0.248470 0.937813
vt 0.248461 0.962177
vt 0.085811 0.962183
vt 0.304983 0.822172
vt 0.305045 0.846501
vt 0.200776 0.846478
vt 0.200757 0.822169
vt 0.085814 0.851148
vt 0.202616 0.851164
vt 0.246647 0.933128
vt 0.085802 0.933147
vt 0.309603 0.851661
vt 0.333237 0.851107
vt 0.333249 0.933148
vt 0.309623 0.932672
vt 0.085808 0.966935
vt 0.246624 0.966932
vt 0.053194 0.933718
vt 0.053216 0.850583
vt 0.056786 0.937556
vt 0.082529 0.936984
vt 0.085859 0.822165
vt 0.085863 0.817432
vt 0.056782 0.846686
vt 0.082513 0.847363
vt 0.085831 0.846453
vt 0.308451 0.936945
vt 0.334240 0.937605
vt 0.305061 0.933121
vt 0.305067 0.851178
vt 0.308432 0.847302
vt 0.334239 0.846736
vt 0.337805 0.933718
vt 0.337824 0.850568
vt 0.085715 0.735274
vt 0.305040 0.937802
vt 0.305027 0.962176
vt 0.305028 0.966931
vn 0.379073 -0.847350 0.371889
vn -0.385832 -0.844227 0.372040
vn -0.419461 -0.907773 -0.000132
vn 0.407696 -0.913115 0.002467
vn -0.367001 -0.367001 -0.854763
vn -0.367001 0.367001 -0.854764
vn 0.367002 0.367001 -0.854763
vn 0.367002 -0.367001 -0.854763
vn 0.838077 0.405527 -0.364932
vn 0.891348 0.453287 -0.005528
vn 0.945752 -0.324874 0.003122
vn 0.866333 -0.335975 -0.369578
vn -0.872429 -0.321294 0.368291
vn -0.836148 0.415734 0.357802
vn -0.882554 0.470211 -0.000806
vn -0.955176 -0.296040 0.000145
vn -0.346476 0.867687 -0.356474
vn -0.338208 0.941070 -0.001684
vn 0.344878 0.938624 -0.006701
vn 0.346566 0.866281 -0.359791
vn -0.366999 0.367001 0.854764
vn -0.367000 -0.367001 0.854764
vn 0.367001 -0.367000 0.854764
vn 0.367001 0.367000 0.854764
vn 0.380009 -0.847808 -0.369885
vn -0.385209 -0.844578 -0.371890
vn -0.872079 -0.322169 -0.368355
vn -0.836724 0.414210 -0.358221
vn 0.840757 0.404723 0.359622
vn 0.864806 -0.336597 0.372576
vn 0.350353 0.867296 0.353624
vn -0.343671 0.869460 0.354866
s 1
g polySurface64 polySurface62
f 19/1/1 23/2/2 25/3/3 26/4/4
f 6/5/5 12/6/6 9/7/7 3/8/8
f 8/9/9 27/10/10 28/11/11 1/12/12
f 22/13/13 16/14/14 29/15/15 30/16/16
f 11/17/17 31/18/18 32/19/19 7/20/20
f 17/21/21 24/22/22 21/23/23 13/24/24
f 2/25/25 1/12/12 28/11/11 26/26/4
f 3/8/8 2/27/25 4/28/26 6/5/5
f 1/29/12 3/8/8 9/7/7 8/30/9
f 5/31/27 4/32/26 25/3/3 30/16/16
f 6/5/5 5/33/27 10/34/28 12/6/6
f 8/9/9 7/20/20 32/19/19 27/10/10
f 7/20/20 9/7/7 12/6/6 11/17/17
f 11/17/17 10/35/28 29/15/15 31/18/18
f 14/36/29 13/24/24 21/23/23 20/37/30
f 13/24/24 15/38/31 18/39/32 17/21/21
f 17/21/21 16/40/14 22/41/13 24/22/22
f 19/42/1 21/23/23 24/22/22 23/43/2
f 1/29/12 2/27/25 3/8/8
f 4/28/26 5/33/27 6/5/5
f 7/20/20 8/30/9 9/7/7
f 10/34/28 11/17/17 12/6/6
f 13/24/24 14/36/29 15/38/31
f 16/40/14 17/21/21 18/39/32
f 19/42/1 20/37/30 21/23/23
f 22/41/13 23/43/2 24/22/22
f 26/4/4 25/3/3 4/32/26 2/44/25
f 28/11/11 27/10/10 14/45/29 20/46/30
f 30/16/16 29/15/15 10/35/28 5/31/27
f 32/19/19 31/18/18 18/39/32 15/38/31
f 26/26/4 28/11/11 20/46/30 19/47/1
f 30/16/16 25/3/3 23/2/2 22/13/13
f 27/10/10 32/19/19 15/38/31 14/45/29
f 31/18/18 29/15/15 16/14/14 18/39/32
