# This file uses centimeters as units for non-parametric coordinates.

g default
v -1.856605 0.052012 2.021127
v -1.908617 0.052012 1.969115
v -1.856605 -0.000000 1.969115
v 2.001979 0.052012 1.969115
v 1.949966 0.052012 2.021127
v 1.949966 -0.000000 1.969115
v -1.915462 0.051560 -1.896440
v -1.863016 0.051694 -1.948782
v -1.856605 -0.000000 -1.891026
v 1.949966 0.052012 -1.943039
v 2.001979 0.052012 -1.891026
v 1.949966 -0.000000 -1.891026
v -1.857893 0.764785 1.969115
v -1.909921 0.712773 1.969131
v -1.856605 0.712773 2.021127
v 2.001979 0.711274 1.969115
v 1.949966 0.763308 1.969136
v 1.949966 0.712773 2.021127
v 1.949978 0.601573 -1.944140
v 1.949988 0.655083 -1.892138
v 2.001979 0.601590 -1.891026
v -2.001979 0.713207 -1.969952
v -1.956797 0.763324 -1.974858
v -1.950580 0.711382 -2.021127
vt 0.735305 0.555277
vt 0.612419 0.553241
vt 0.615254 0.532515
vt 0.735316 0.534257
vt 0.612217 0.814920
vt 0.615416 0.697432
vt 0.734617 0.700567
vt 0.731455 0.818102
vt 0.757661 0.675830
vt 0.737199 0.675481
vt 0.737291 0.556850
vt 0.758454 0.557669
vt 0.614874 0.695057
vt 0.615462 0.677877
vt 0.735686 0.677595
vt 0.735289 0.698228
vt 0.610985 0.555391
vt 0.613879 0.675792
vt 0.596892 0.676875
vt 0.590642 0.559009
vt 0.734915 0.675228
vt 0.616231 0.675476
vt 0.613176 0.555403
vt 0.734882 0.557638
vt 0.737765 0.534261
vt 0.731995 0.820487
vt 0.611440 0.817408
vt 0.733800 0.818774
vt 0.737006 0.700020
vt 0.757546 0.678252
vt 0.590291 0.556510
vt 0.609716 0.815593
vt 0.613061 0.696754
vt 0.597129 0.679272
vn -0.858783 0.342827 0.380738
vn -0.883973 0.275099 -0.378037
vn -0.819929 -0.458431 -0.342867
vn -0.842452 -0.391097 0.370565
vn -0.340348 -0.875805 -0.342241
vn 0.366138 -0.858025 -0.360188
vn 0.367000 -0.854764 0.367000
vn -0.358829 -0.858666 0.365971
vn 0.367002 -0.367002 0.854762
vn 0.369495 0.370745 0.852069
vn -0.363838 0.366473 0.856341
vn -0.365472 -0.366949 0.855441
vn 0.855325 -0.366986 -0.365705
vn 0.856789 0.359110 -0.370070
vn 0.858343 0.367166 0.358381
vn 0.854764 -0.367002 0.367000
vn -0.367230 0.273773 -0.888927
vn 0.384060 0.337963 -0.859232
vn 0.369616 -0.388469 -0.844083
vn -0.342931 -0.455575 -0.821492
vn 0.374735 0.857237 0.353156
vn 0.385179 0.839731 -0.382740
vn -0.375907 0.837379 -0.396851
vn -0.367549 0.852985 0.370573
s 1
g polySurface91 polySurface90
f 14/1/1 22/2/2 7/3/3 2/4/4
f 9/5/5 12/6/6 6/7/7 3/8/8
f 5/9/9 18/10/10 15/11/11 1/12/12
f 11/13/13 21/14/14 16/15/15 4/16/16
f 24/17/17 19/18/18 10/19/19 8/20/20
f 17/21/21 20/22/22 23/23/23 13/24/24
f 2/4/4 1/25/12 15/11/11 14/1/1
f 3/8/8 2/26/4 7/27/3 9/5/5
f 1/28/12 3/8/8 6/7/7 5/29/9
f 5/9/9 4/30/16 16/15/15 18/10/10
f 4/16/16 6/7/7 12/6/6 11/13/13
f 8/20/20 7/31/3 22/2/2 24/17/17
f 9/5/5 8/32/20 10/33/19 12/6/6
f 11/34/13 10/19/19 19/18/18 21/14/14
f 14/1/1 13/24/24 23/23/23 22/2/2
f 13/24/24 15/11/11 18/10/10 17/21/21
f 17/21/21 16/15/15 21/14/14 20/22/22
f 20/22/22 19/18/18 24/17/17 23/23/23
f 1/28/12 2/26/4 3/8/8
f 4/16/16 5/29/9 6/7/7
f 7/27/3 8/32/20 9/5/5
f 10/33/19 11/13/13 12/6/6
f 13/24/24 14/1/1 15/11/11
f 16/15/15 17/21/21 18/10/10
f 19/18/18 20/22/22 21/14/14
f 22/2/2 23/23/23 24/17/17
