# This file uses centimeters as units for non-parametric coordinates.

g default
v -5.053374 0.052012 1.863949
v -5.105386 0.052012 1.811936
v -5.053374 -0.000000 1.811936
v -1.194790 0.052012 1.811936
v -1.246803 0.052012 1.863949
v -1.246803 -0.000000 1.811936
v -5.112231 0.051560 -2.053619
v -5.059785 0.051694 -2.105960
v -5.053374 -0.000000 -2.048205
v -1.246803 0.052012 -2.100217
v -1.194790 0.052012 -2.048205
v -1.246803 -0.000000 -2.048205
v -5.054662 0.764785 1.811936
v -5.106690 0.712773 1.811953
v -5.053374 0.712773 1.863949
v -1.194790 0.711274 1.811936
v -1.246803 0.763308 1.811957
v -1.246803 0.712773 1.863949
v -1.246791 0.601573 -2.101318
v -1.246781 0.655083 -2.049316
v -1.194790 0.601590 -2.048205
v -5.198748 0.713207 -2.127130
v -5.153566 0.763324 -2.132036
v -5.147349 0.711382 -2.178305
v -3.168606 0.052182 4.158791
v -3.220602 0.052012 4.105489
v -3.168590 0.000169 4.106762
v 0.678187 0.064252 4.186856
v 0.625747 0.062819 4.239655
v 0.624186 0.012194 4.200782
v -3.220602 0.052012 2.157356
v -3.168590 0.052012 2.105344
v -3.168590 -0.000000 2.157356
v 0.637982 0.052012 2.105344
v 0.689652 0.052320 2.157355
v 0.637638 0.000307 2.157355
v -3.168590 0.764618 4.104194
v -3.220602 0.712773 4.105489
v -3.168605 0.712605 4.156221
v 0.701759 0.700405 4.020672
v 0.651760 0.752620 4.010175
v 0.650177 0.701954 4.075341
v 0.637982 0.712773 2.105344
v 0.638357 0.764448 2.157355
v 0.690370 0.712435 2.157355
v -3.220602 0.712773 2.157356
v -3.168590 0.764785 2.157356
v -3.168590 0.712773 2.105344
v -1.018037 0.054839 1.943769
v -1.069330 0.054603 1.892136
v -1.023032 0.002846 1.894808
v 1.543554 0.052012 1.872902
v 1.491543 0.052071 1.925359
v 1.491542 0.000059 1.873345
v -1.035099 0.052087 -0.075241
v -0.982032 0.052012 -0.127243
v -0.983076 0.000075 -0.075231
v 1.491541 0.052012 -0.127243
v 1.543554 0.052012 -0.075230
v 1.491541 -0.000000 -0.075230
v -0.941015 0.761943 1.850989
v -0.998781 0.710189 1.853513
v -0.945396 0.709941 1.906075
v 1.543554 0.717223 1.872902
v 1.491542 0.769364 1.872649
v 1.491544 0.712712 1.924456
v 1.491541 0.892701 -0.127243
v 1.491672 0.940216 -0.075437
v 1.543554 0.891676 -0.075230
v -1.032966 0.712697 -0.075242
v -0.981075 0.768409 -0.075231
v -0.982032 0.716349 -0.127243
v 1.786890 0.052012 2.101458
v 1.734109 0.052106 2.049451
v 1.786127 0.000094 2.049446
v 4.695436 0.052012 2.049446
v 4.643424 0.052012 2.101458
v 4.643424 -0.000000 2.049446
v 1.694201 0.057336 -1.183900
v 1.746048 0.057399 -1.235618
v 1.738292 0.005826 -1.191023
v 4.643430 0.052116 -1.198480
v 4.695436 0.052012 -1.145670
v 4.643425 0.000104 -1.146461
v 1.787684 0.762889 2.049480
v 1.735667 0.710841 2.049452
v 1.786890 0.712773 2.101458
v 4.695436 0.712773 2.049446
v 4.643424 0.764785 2.049446
v 4.643424 0.712773 2.101458
v 4.643431 0.710610 -1.196857
v 4.643467 0.762667 -1.144839
v 4.695436 0.712773 -1.145670
v 1.775484 0.596366 -1.106188
v 1.835455 0.650138 -1.100343
v 1.829175 0.596461 -1.159827
vt 0.735305 0.555277
vt 0.612419 0.553241
vt 0.615254 0.532515
vt 0.735316 0.534257
vt 0.612217 0.814920
vt 0.615416 0.697432
vt 0.734617 0.700567
vt 0.731455 0.818102
vt 0.757661 0.675830
vt 0.737199 0.675481
vt 0.737291 0.556850
vt 0.758454 0.557669
vt 0.614874 0.695057
vt 0.615462 0.677877
vt 0.735686 0.677595
vt 0.735289 0.698228
vt 0.610985 0.555391
vt 0.613879 0.675792
vt 0.596892 0.676875
vt 0.590642 0.559009
vt 0.734915 0.675228
vt 0.616231 0.675476
vt 0.613176 0.555403
vt 0.734882 0.557638
vt 0.737765 0.534261
vt 0.731995 0.820487
vt 0.611440 0.817408
vt 0.733800 0.818774
vt 0.737006 0.700020
vt 0.757546 0.678252
vt 0.590291 0.556510
vt 0.609716 0.815593
vt 0.613061 0.696754
vt 0.597129 0.679272
vt 0.820328 0.833365
vt 0.759882 0.834054
vt 0.759867 0.813421
vt 0.820468 0.813043
vt 0.906488 0.834043
vt 0.907345 0.952736
vt 0.843885 0.952719
vt 0.845265 0.834438
vt 0.841908 0.953214
vt 0.821146 0.953433
vt 0.822345 0.834903
vt 0.842917 0.834257
vt 0.761657 0.975965
vt 0.761190 0.955324
vt 0.819158 0.955065
vt 0.824911 0.974452
vt 0.758493 0.836181
vt 0.759803 0.953162
vt 0.739430 0.953603
vt 0.738153 0.836241
vt 0.818545 0.952878
vt 0.762034 0.953032
vt 0.760744 0.836323
vt 0.820055 0.835585
vt 0.822962 0.813121
vt 0.844449 0.832240
vt 0.907053 0.831792
vt 0.827334 0.974260
vt 0.843710 0.955081
vt 0.907903 0.954995
vt 0.738196 0.833778
vt 0.908790 0.833620
vt 0.909631 0.953166
vt 0.739553 0.955996
vt 0.964695 0.160918
vt 0.964591 0.100226
vt 0.985297 0.100062
vt 0.985955 0.161779
vt 0.963677 0.247325
vt 0.887234 0.247406
vt 0.887151 0.187326
vt 0.964838 0.186579
vt 0.886608 0.184976
vt 0.886655 0.164316
vt 0.963191 0.162967
vt 0.965289 0.184266
vt 0.858435 0.104508
vt 0.884373 0.101658
vt 0.885095 0.162228
vt 0.864871 0.164700
vt 0.962429 0.098809
vt 0.886606 0.100267
vt 0.887570 0.074678
vt 0.963701 0.078546
vt 0.887436 0.161848
vt 0.886647 0.102486
vt 0.962173 0.101153
vt 0.962142 0.160470
vt 0.985794 0.164185
vt 0.967074 0.186047
vt 0.966025 0.247902
vt 0.865221 0.167156
vt 0.884792 0.186770
vt 0.884875 0.247983
vt 0.966193 0.078754
vt 0.964178 0.249697
vt 0.886691 0.249767
vt 0.885080 0.074638
vt 0.967885 0.410417
vt 0.967642 0.312720
vt 0.984231 0.309296
vt 0.989313 0.412177
vt 0.965282 0.534981
vt 0.876474 0.532500
vt 0.877659 0.434744
vt 0.965061 0.435825
vt 0.876968 0.431761
vt 0.877435 0.411983
vt 0.965887 0.413006
vt 0.965790 0.432859
vt 0.856022 0.310915
vt 0.876143 0.311071
vt 0.875586 0.409120
vt 0.855328 0.409052
vt 0.964851 0.310545
vt 0.878926 0.309191
vt 0.880057 0.289116
vt 0.968366 0.293967
vt 0.878478 0.408984
vt 0.879050 0.312110
vt 0.964345 0.313735
vt 0.964971 0.410034
vt 0.989215 0.415445
vt 0.968085 0.435135
vt 0.968057 0.535538
vt 0.855466 0.412430
vt 0.874652 0.433978
vt 0.873460 0.533132
vt 0.971652 0.294764
vt 0.965761 0.537803
vt 0.875712 0.535497
vt 0.876579 0.289082
vn -0.858783 0.342827 0.380738
vn -0.883973 0.275099 -0.378037
vn -0.819929 -0.458431 -0.342867
vn -0.842452 -0.391097 0.370565
vn -0.340348 -0.875805 -0.342241
vn 0.366138 -0.858025 -0.360188
vn 0.367000 -0.854764 0.367000
vn -0.358829 -0.858666 0.365971
vn 0.367002 -0.367002 0.854762
vn 0.369495 0.370745 0.852069
vn -0.363838 0.366473 0.856341
vn -0.365472 -0.366949 0.855441
vn 0.855325 -0.366986 -0.365705
vn 0.856789 0.359110 -0.370070
vn 0.858343 0.367166 0.358381
vn 0.854764 -0.367002 0.367000
vn -0.367230 0.273773 -0.888927
vn 0.384060 0.337963 -0.859232
vn 0.369616 -0.388469 -0.844083
vn -0.342931 -0.455575 -0.821492
vn 0.374735 0.857237 0.353156
vn 0.385179 0.839731 -0.382740
vn -0.375907 0.837379 -0.396851
vn -0.367549 0.852985 0.370573
vn -0.852760 0.369666 0.368982
vn -0.854671 0.367195 -0.367022
vn -0.854670 -0.367197 -0.367023
vn -0.856180 -0.365299 0.365394
vn -0.366472 -0.855451 -0.365926
vn 0.366324 -0.857208 -0.361942
vn 0.382520 -0.833540 0.398611
vn -0.374975 -0.845386 0.380417
vn 0.385878 -0.254316 0.886804
vn 0.363921 0.471619 0.803204
vn -0.357281 0.416182 0.836148
vn -0.376652 -0.318887 0.869739
vn 0.853150 -0.374631 -0.363025
vn 0.857640 0.359664 -0.367553
vn 0.843477 0.416599 0.339106
vn 0.874394 -0.307206 0.375579
vn -0.367052 0.367388 -0.854575
vn 0.366983 0.367228 -0.854673
vn 0.367938 -0.368376 -0.853769
vn -0.367047 -0.367354 -0.854592
vn 0.365058 0.870238 0.330786
vn 0.369995 0.853763 -0.366322
vn -0.366456 0.855485 -0.365864
vn -0.356433 0.864748 0.353789
vn -0.829293 0.428366 0.358852
vn -0.854864 0.379332 -0.353998
vn -0.860865 -0.345353 -0.373688
vn -0.877779 -0.297483 0.375511
vn -0.372089 -0.849908 -0.373104
vn 0.366804 -0.854957 -0.366747
vn 0.369403 -0.852376 0.370131
vn -0.385661 -0.840513 0.380531
vn 0.369733 -0.355613 0.858392
vn 0.356676 0.366060 0.859525
vn -0.352532 0.417500 0.837505
vn -0.376464 -0.306799 0.874156
vn 0.854731 -0.367070 -0.367008
vn 0.857017 0.381537 -0.346340
vn 0.843789 0.364113 0.394261
vn 0.855238 -0.366405 0.366492
vn -0.390261 0.368171 -0.843888
vn 0.353755 0.383066 -0.853298
vn 0.367011 -0.367088 -0.854722
vn -0.365634 -0.365439 -0.856018
vn 0.343544 0.846002 0.407747
vn 0.340379 0.880651 -0.329540
vn -0.396980 0.853580 -0.337353
vn -0.360887 0.854950 0.372588
vn -0.849441 0.394858 0.350053
vn -0.813188 0.462573 -0.353202
vn -0.888935 -0.250266 -0.383617
vn -0.863752 -0.340007 0.371925
vn -0.397769 -0.826689 -0.397951
vn 0.371700 -0.849516 -0.374382
vn 0.366648 -0.855049 0.366689
vn -0.374989 -0.849236 0.371729
vn 0.367014 -0.367110 0.854711
vn 0.367272 0.369159 0.853717
vn -0.371366 0.373166 0.850196
vn -0.366084 -0.365955 0.855605
vn 0.855622 -0.365936 -0.366063
vn 0.849731 0.373779 -0.371815
vn 0.853592 0.369408 0.367312
vn 0.854705 -0.367123 0.367016
vn -0.354146 0.461025 -0.813656
vn 0.348641 0.393712 -0.850553
vn 0.371903 -0.341661 -0.863108
vn -0.382491 -0.251940 -0.888947
vn 0.359890 0.860449 0.360702
vn 0.341243 0.864399 -0.369281
vn -0.356048 0.864577 -0.354595
vn -0.369029 0.863658 0.343384
s 1
g polySurface56
f 14/1/1 22/2/2 7/3/3 2/4/4
f 9/5/5 12/6/6 6/7/7 3/8/8
f 5/9/9 18/10/10 15/11/11 1/12/12
f 11/13/13 21/14/14 16/15/15 4/16/16
f 24/17/17 19/18/18 10/19/19 8/20/20
f 17/21/21 20/22/22 23/23/23 13/24/24
f 2/4/4 1/25/12 15/11/11 14/1/1
f 3/8/8 2/26/4 7/27/3 9/5/5
f 1/28/12 3/8/8 6/7/7 5/29/9
f 5/9/9 4/30/16 16/15/15 18/10/10
f 4/16/16 6/7/7 12/6/6 11/13/13
f 8/20/20 7/31/3 22/2/2 24/17/17
f 9/5/5 8/32/20 10/33/19 12/6/6
f 11/34/13 10/19/19 19/18/18 21/14/14
f 14/1/1 13/24/24 23/23/23 22/2/2
f 13/24/24 15/11/11 18/10/10 17/21/21
f 17/21/21 16/15/15 21/14/14 20/22/22
f 20/22/22 19/18/18 24/17/17 23/23/23
f 1/28/12 2/26/4 3/8/8
f 4/16/16 5/29/9 6/7/7
f 7/27/3 8/32/20 9/5/5
f 10/33/19 11/13/13 12/6/6
f 13/24/24 14/1/1 15/11/11
f 16/15/15 17/21/21 18/10/10
f 19/18/18 20/22/22 21/14/14
f 22/2/2 23/23/23 24/17/17
s 6
f 38/35/25 46/36/26 31/37/27 26/38/28
f 33/39/29 36/40/30 30/41/31 27/42/32
f 29/43/33 42/44/34 39/45/35 25/46/36
f 35/47/37 45/48/38 40/49/39 28/50/40
f 48/51/41 43/52/42 34/53/43 32/54/44
f 41/55/45 44/56/46 47/57/47 37/58/48
f 26/38/28 25/59/36 39/45/35 38/35/25
f 27/42/32 26/60/28 31/61/27 33/39/29
f 25/46/36 27/42/32 30/41/31 29/43/33
f 29/62/33 28/50/40 40/49/39 42/44/34
f 28/63/40 30/41/31 36/40/30 35/64/37
f 32/54/44 31/65/27 46/36/26 48/51/41
f 33/39/29 32/66/44 34/67/43 36/40/30
f 35/68/37 34/53/43 43/52/42 45/48/38
f 38/35/25 37/58/48 47/57/47 46/36/26
f 37/58/48 39/45/35 42/44/34 41/55/45
f 41/55/45 40/49/39 45/48/38 44/56/46
f 44/56/46 43/52/42 48/51/41 47/57/47
f 25/46/36 26/60/28 27/42/32
f 28/63/40 29/43/33 30/41/31
f 31/61/27 32/66/44 33/39/29
f 34/67/43 35/64/37 36/40/30
f 37/58/48 38/35/25 39/45/35
f 40/49/39 41/55/45 42/44/34
f 43/52/42 44/56/46 45/48/38
f 46/36/26 47/57/47 48/51/41
s 11
f 62/69/49 70/70/50 55/71/51 50/72/52
f 57/73/53 60/74/54 54/75/55 51/76/56
f 53/77/57 66/78/58 63/79/59 49/80/60
f 59/81/61 69/82/62 64/83/63 52/84/64
f 72/85/65 67/86/66 58/87/67 56/88/68
f 65/89/69 68/90/70 71/91/71 61/92/72
f 50/72/52 49/93/60 63/79/59 62/69/49
f 51/76/56 50/94/52 55/95/51 57/73/53
f 49/80/60 51/76/56 54/75/55 53/77/57
f 53/96/57 52/84/64 64/83/63 66/78/58
f 52/97/64 54/75/55 60/74/54 59/98/61
f 56/88/68 55/99/51 70/70/50 72/85/65
f 57/73/53 56/100/68 58/101/67 60/74/54
f 59/102/61 58/87/67 67/86/66 69/82/62
f 62/69/49 61/92/72 71/91/71 70/70/50
f 61/92/72 63/79/59 66/78/58 65/89/69
f 65/89/69 64/83/63 69/82/62 68/90/70
f 68/90/70 67/86/66 72/85/65 71/91/71
f 49/80/60 50/94/52 51/76/56
f 52/97/64 53/77/57 54/75/55
f 55/95/51 56/100/68 57/73/53
f 58/101/67 59/98/61 60/74/54
f 61/92/72 62/69/49 63/79/59
f 64/83/63 65/89/69 66/78/58
f 67/86/66 68/90/70 69/82/62
f 70/70/50 71/91/71 72/85/65
s 16
f 86/103/73 94/104/74 79/105/75 74/106/76
f 81/107/77 84/108/78 78/109/79 75/110/80
f 77/111/81 90/112/82 87/113/83 73/114/84
f 83/115/85 93/116/86 88/117/87 76/118/88
f 96/119/89 91/120/90 82/121/91 80/122/92
f 89/123/93 92/124/94 95/125/95 85/126/96
f 74/106/76 73/127/84 87/113/83 86/103/73
f 75/110/80 74/128/76 79/129/75 81/107/77
f 73/114/84 75/110/80 78/109/79 77/111/81
f 77/130/81 76/118/88 88/117/87 90/112/82
f 76/131/88 78/109/79 84/108/78 83/132/85
f 80/122/92 79/133/75 94/104/74 96/119/89
f 81/107/77 80/134/92 82/135/91 84/108/78
f 83/136/85 82/121/91 91/120/90 93/116/86
f 86/103/73 85/126/96 95/125/95 94/104/74
f 85/126/96 87/113/83 90/112/82 89/123/93
f 89/123/93 88/117/87 93/116/86 92/124/94
f 92/124/94 91/120/90 96/119/89 95/125/95
f 73/114/84 74/128/76 75/110/80
f 76/131/88 77/111/81 78/109/79
f 79/129/75 80/134/92 81/107/77
f 82/135/91 83/132/85 84/108/78
f 85/126/96 86/103/73 87/113/83
f 88/117/87 89/123/93 90/112/82
f 91/120/90 92/124/94 93/116/86
f 94/104/74 95/125/95 96/119/89
