# This file uses centimeters as units for non-parametric coordinates.

g default
v -1.909184 0.052182 0.986291
v -1.961180 0.052012 0.932990
v -1.909168 0.000169 0.934263
v 1.937609 0.064252 1.014357
v 1.885169 0.062819 1.067155
v 1.883607 0.012194 1.028283
v -1.961180 0.052012 -1.015143
v -1.909168 0.052012 -1.067155
v -1.909168 -0.000000 -1.015143
v 1.897403 0.052012 -1.067155
v 1.949073 0.052320 -1.015144
v 1.897060 0.000307 -1.015144
v -1.909168 0.764618 0.931695
v -1.961180 0.712773 0.932990
v -1.909184 0.712605 0.983722
v 1.961180 0.700405 0.848173
v 1.911181 0.752620 0.837676
v 1.909598 0.701954 0.902842
v 1.897403 0.712773 -1.067155
v 1.897778 0.764448 -1.015144
v 1.949792 0.712435 -1.015144
v -1.961180 0.712773 -1.015143
v -1.909168 0.764785 -1.015143
v -1.909168 0.712773 -1.067155
vt 0.820328 0.833365
vt 0.759882 0.834054
vt 0.759867 0.813421
vt 0.820468 0.813043
vt 0.906488 0.834043
vt 0.907345 0.952736
vt 0.843885 0.952719
vt 0.845265 0.834438
vt 0.841908 0.953214
vt 0.821146 0.953433
vt 0.822345 0.834903
vt 0.842917 0.834257
vt 0.761657 0.975965
vt 0.761190 0.955324
vt 0.819158 0.955065
vt 0.824911 0.974452
vt 0.758493 0.836181
vt 0.759803 0.953162
vt 0.739430 0.953603
vt 0.738153 0.836241
vt 0.818545 0.952878
vt 0.762034 0.953032
vt 0.760744 0.836323
vt 0.820055 0.835585
vt 0.822962 0.813121
vt 0.844449 0.832240
vt 0.907053 0.831792
vt 0.827334 0.974260
vt 0.843710 0.955081
vt 0.907903 0.954995
vt 0.738196 0.833778
vt 0.908790 0.833620
vt 0.909631 0.953166
vt 0.739553 0.955996
vn -0.852760 0.369666 0.368982
vn -0.854671 0.367195 -0.367022
vn -0.854670 -0.367197 -0.367023
vn -0.856180 -0.365299 0.365394
vn -0.366472 -0.855451 -0.365926
vn 0.366324 -0.857208 -0.361942
vn 0.382520 -0.833540 0.398611
vn -0.374975 -0.845386 0.380417
vn 0.385878 -0.254316 0.886804
vn 0.363921 0.471619 0.803204
vn -0.357281 0.416182 0.836148
vn -0.376652 -0.318887 0.869739
vn 0.853150 -0.374631 -0.363025
vn 0.857640 0.359664 -0.367553
vn 0.843477 0.416599 0.339106
vn 0.874394 -0.307206 0.375579
vn -0.367052 0.367388 -0.854575
vn 0.366983 0.367228 -0.854673
vn 0.367938 -0.368376 -0.853769
vn -0.367047 -0.367354 -0.854592
vn 0.365058 0.870238 0.330786
vn 0.369995 0.853763 -0.366322
vn -0.366456 0.855485 -0.365864
vn -0.356433 0.864748 0.353789
s 1
g polySurface92 polySurface90
f 14/1/1 22/2/2 7/3/3 2/4/4
f 9/5/5 12/6/6 6/7/7 3/8/8
f 5/9/9 18/10/10 15/11/11 1/12/12
f 11/13/13 21/14/14 16/15/15 4/16/16
f 24/17/17 19/18/18 10/19/19 8/20/20
f 17/21/21 20/22/22 23/23/23 13/24/24
f 2/4/4 1/25/12 15/11/11 14/1/1
f 3/8/8 2/26/4 7/27/3 9/5/5
f 1/12/12 3/8/8 6/7/7 5/9/9
f 5/28/9 4/16/16 16/15/15 18/10/10
f 4/29/16 6/7/7 12/6/6 11/30/13
f 8/20/20 7/31/3 22/2/2 24/17/17
f 9/5/5 8/32/20 10/33/19 12/6/6
f 11/34/13 10/19/19 19/18/18 21/14/14
f 14/1/1 13/24/24 23/23/23 22/2/2
f 13/24/24 15/11/11 18/10/10 17/21/21
f 17/21/21 16/15/15 21/14/14 20/22/22
f 20/22/22 19/18/18 24/17/17 23/23/23
f 1/12/12 2/26/4 3/8/8
f 4/29/16 5/9/9 6/7/7
f 7/27/3 8/32/20 9/5/5
f 10/33/19 11/30/13 12/6/6
f 13/24/24 14/1/1 15/11/11
f 16/15/15 17/21/21 18/10/10
f 19/18/18 20/22/22 21/14/14
f 22/2/2 23/23/23 24/17/17
