# This file uses centimeters as units for non-parametric coordinates.

g default
v -4.576762 9.029877 -1.185223
v -4.576762 -0.076992 -1.185223
v 4.576762 9.029877 -1.185223
v 4.576762 -0.076992 -1.185223
v -4.576762 9.029877 1.328666
v -4.576762 -0.076992 1.328666
v 4.576762 9.029877 1.328666
v 4.576762 -0.076992 1.328666
v -3.537475 7.995886 -0.590774
v -3.537475 -0.049730 -0.590774
v 3.537475 7.995886 -0.590774
v 3.537475 -0.049730 -0.590774
v -3.537475 7.995886 0.590774
v -3.537475 -0.049730 0.590774
v 3.537475 7.995886 0.590774
v 3.537475 -0.049730 0.590774
v -2.827579 7.262072 -1.116463
v -2.876380 7.311393 -1.185223
v -2.896339 -0.076992 -1.185223
v -2.827579 -0.076992 -1.116463
v 2.827579 7.262072 -1.116463
v 2.876380 7.311393 -1.185223
v 2.827579 -0.076992 -1.116463
v 2.896339 -0.076992 -1.185223
v -2.827579 -0.076992 1.259906
v -2.896339 -0.076992 1.328666
v -2.876380 7.311393 1.328666
v -2.827579 7.262072 1.259906
v 2.876380 7.311393 1.328666
v 2.827579 7.262072 1.259906
v 2.896339 -0.076992 1.328666
v 2.827579 -0.076992 1.259906
v -2.185495 6.629514 -0.522014
v -2.234957 6.679502 -0.590774
v -2.254255 -0.049730 -0.590774
v -2.185495 -0.049730 -0.522014
v 2.185495 6.629514 -0.522014
v 2.234957 6.679502 -0.590774
v 2.185495 -0.049730 -0.522014
v 2.254255 -0.049730 -0.590774
v -2.185495 -0.049730 0.522013
v -2.254255 -0.049730 0.590774
v -2.234957 6.679502 0.590774
v -2.185495 6.629514 0.522013
v 2.234957 6.679502 0.590774
v 2.185495 6.629514 0.522013
v 2.254255 -0.049730 0.590774
v 2.185495 -0.049730 0.522013
vt 0.929563 0.343437
vt 0.843761 0.627315
vt 0.781739 0.627514
vt 0.780807 0.354523
vt 0.778204 0.627759
vt 0.862867 0.280246
vt 0.865395 0.068199
vt 0.573924 0.694626
vt 0.507996 0.631995
vt 0.511158 0.357860
vt 0.573299 0.357860
vt 0.507906 0.358500
vt 0.624334 0.291922
vt 0.772490 0.281372
vt 0.687170 0.628727
vt 0.625151 0.628605
vt 0.708351 0.006068
vt 0.417623 0.632044
vt 0.690436 0.354191
vt 0.690686 0.628219
vt 0.416837 0.358483
vt 0.354697 0.358665
vt 0.775039 0.069632
vt 0.420114 0.358812
vt 0.945383 0.355530
vt 0.946167 0.605076
vt 0.161808 0.423434
vt 0.945870 0.663530
vt 0.852939 0.308595
vt 0.852939 0.616571
vt 0.995050 0.877030
vt 0.254798 0.720499
vt 0.709044 0.344699
vt 0.206930 0.422753
vt 0.354754 0.695432
vt 0.843472 0.290633
vt 0.162508 0.673233
vt 0.993516 0.604524
vt 0.928834 0.004807
vt 0.853460 0.878330
vt 0.942642 0.605722
vt 0.943204 0.828982
vt 0.114368 0.721318
vt 0.900810 0.606354
vt 0.203663 0.674475
vt 0.993373 0.307268
vt 0.254352 0.423170
vt 0.203666 0.423584
vt 0.902067 0.830161
vt 0.994467 0.615270
vt 0.775441 0.280862
vt 0.853500 0.605851
vt 0.687252 0.355650
vt 0.420606 0.632424
vt 0.904184 0.354868
vt 0.904355 0.605993
vt 0.772055 0.069135
vt 0.114388 0.423989
vt 0.904773 0.665386
vt 0.165146 0.423762
vt 0.865852 0.280318
vt 0.777505 0.353645
vt 0.510927 0.631309
vt 0.862465 0.069124
vt 0.942942 0.665070
vt 0.206590 0.672412
vt 0.905038 0.829355
vt 0.942111 0.354568
vt 0.946239 0.828987
vt 0.901110 0.356800
vt 0.901739 0.664546
vt 0.165538 0.674752
vn 0.418324 -0.000567 0.908298
vn 0.222253 -0.237951 0.945507
vn 0.000000 0.000000 1.000000
vn 0.000000 0.000000 1.000000
vn -0.000000 0.000000 1.000000
vn -0.222253 -0.237951 0.945507
vn -0.000000 0.000000 1.000000
vn -0.418324 -0.000567 0.908298
vn 0.000000 0.000000 -1.000000
vn 0.000000 0.000000 -1.000000
vn 0.222253 -0.237951 -0.945507
vn 0.418325 -0.000567 -0.908297
vn -0.222253 -0.237951 -0.945507
vn 0.000000 0.000000 -1.000000
vn 0.000000 0.000000 -1.000000
vn -0.418325 -0.000567 -0.908297
vn 0.625898 -0.644987 0.438457
vn 0.938063 -0.000549 0.346463
vn 0.938064 -0.000549 -0.346463
vn 0.625898 -0.644987 -0.438456
vn -0.625898 -0.644987 0.438457
vn -0.625898 -0.644987 -0.438456
vn -0.938063 -0.000549 0.346463
vn -0.938064 -0.000549 -0.346463
vn 0.417061 -0.000600 0.908879
vn 0.221360 -0.236490 0.946083
vn 0.000000 0.000000 1.000000
vn 0.000000 0.000000 1.000000
vn 0.000000 0.000000 1.000000
vn -0.221360 -0.236490 0.946083
vn 0.000000 0.000000 -1.000000
vn 0.000000 0.000000 -1.000000
vn 0.221359 -0.236489 -0.946083
vn 0.417059 -0.000600 -0.908879
vn -0.221359 -0.236489 -0.946083
vn 0.000000 0.000000 -1.000000
vn 0.000000 0.000000 -1.000000
vn -0.417059 -0.000600 -0.908879
vn 0.625320 -0.643750 0.441091
vn 0.937581 -0.000582 0.347768
vn 0.937580 -0.000582 -0.347769
vn 0.625319 -0.643750 -0.441093
vn -0.625320 -0.643750 0.441091
vn -0.625319 -0.643750 -0.441093
vn 0.000000 0.000000 1.000000
vn -0.417061 -0.000600 0.908879
vn -0.937581 -0.000582 0.347768
vn -0.937580 -0.000582 -0.347769
s 1
g polySurface19
f 26/3/1 27/4/2 5/36/3 6/2/4
f 7/39/5 5/1/3 27/61/2 29/7/6
f 8/11/7 7/8/5 29/63/6 31/10/8
f 2/16/9 1/13/10 18/53/11 19/15/12
f 22/57/13 18/14/11 1/33/10 3/17/14
f 3/35/14 4/22/15 24/21/16 22/18/13
f 28/62/17 25/5/18 20/20/19 17/19/20
f 30/64/21 28/6/17 17/51/20 21/23/22
f 32/12/23 30/9/21 21/54/22 23/24/24
s 3
f 42/26/25 43/25/26 13/46/27 14/38/28
f 15/50/29 13/31/27 43/69/26 45/28/30
f 10/52/31 9/29/32 34/70/33 35/44/34
f 38/71/35 34/49/33 9/40/32 11/30/36
f 11/43/36 12/58/37 40/27/38 38/37/35
f 44/68/39 41/41/40 36/56/41 33/55/42
f 46/65/43 44/42/39 33/67/42 37/59/44
s 1
f 18/53/11 17/19/20 20/20/19 19/15/12
f 17/51/20 18/14/11 22/57/13 21/23/22
f 21/54/22 22/18/13 24/21/16 23/24/24
f 26/3/1 25/5/18 28/62/17 27/4/2
f 27/61/2 28/6/17 30/64/21 29/7/6
f 29/63/6 30/9/21 32/12/23 31/10/8
s 3
f 34/70/33 33/55/42 36/56/41 35/44/34
f 33/67/42 34/49/33 38/71/35 37/59/44
f 42/26/25 41/41/40 44/68/39 43/25/26
f 43/69/26 44/42/39 46/65/43 45/28/30
f 16/47/45 15/32/29 45/66/30 47/34/46
f 45/66/30 46/45/43 48/48/47 47/34/46
f 48/48/47 46/45/43 37/72/44 39/60/48
f 37/72/44 38/37/35 40/27/38 39/60/48
