# This file uses centimeters as units for non-parametric coordinates.

g default
v -1.663386 0.088506 1.996543
v -1.587222 0.012343 1.996543
v -1.587222 0.088506 2.072707
v 1.587222 0.012343 1.996543
v 1.663386 0.088506 1.996543
v 1.587222 0.088506 2.072707
v -1.587222 2.710716 1.996543
v -1.663386 2.634553 1.996543
v -1.587222 2.634553 2.072707
v 1.663386 2.634553 1.996543
v 1.587222 2.710716 1.996543
v 1.587222 2.634553 2.072707
v -1.587222 2.634553 -1.254065
v -1.663386 2.634553 -1.177901
v -1.587222 2.710716 -1.177901
v 1.663386 2.634553 -1.177901
v 1.587222 2.634553 -1.254065
v 1.587222 2.710716 -1.177901
v -1.587222 0.012343 -1.177901
v -1.663386 0.088506 -1.177901
v -1.587222 0.088506 -1.254065
v 1.663386 0.088506 -1.177901
v 1.587222 0.012343 -1.177901
v 1.587222 0.088506 -1.254065
v -1.681699 2.790922 1.981327
v -1.605535 2.714759 1.981327
v -1.605535 2.790922 2.057491
v 1.653966 2.714759 1.981327
v 1.730130 2.790922 1.981327
v 1.653966 2.790922 2.057491
v -1.605535 4.684877 1.981327
v -1.681699 4.608713 1.981327
v -1.605535 4.608713 2.057491
v 1.730130 4.608713 1.981327
v 1.653966 4.684877 1.981327
v 1.653966 4.608713 2.057491
v -1.605535 4.608713 0.162521
v -1.681699 4.608713 0.238684
v -1.605535 4.684877 0.238684
v 1.730130 4.608713 0.238684
v 1.653966 4.608713 0.162521
v 1.653966 4.684877 0.238684
v -1.605535 2.714759 0.238684
v -1.681699 2.790922 0.238684
v -1.605535 2.790922 0.162521
v 1.730130 2.790922 0.238684
v 1.653966 2.714759 0.238684
v 1.653966 2.790922 0.162521
v -1.575235 2.790922 0.073561
v -1.499071 2.714759 0.073561
v -1.499071 2.790922 0.149724
v 1.587222 2.714759 0.073561
v 1.663386 2.790922 0.073561
v 1.587222 2.790922 0.149724
v -1.499071 4.684877 0.073561
v -1.575235 4.608713 0.073561
v -1.499071 4.608713 0.149724
v 1.663386 4.608713 0.073561
v 1.587222 4.684877 0.073561
v 1.587222 4.608713 0.149724
v -1.499071 4.608713 -1.322718
v -1.575235 4.608713 -1.246554
v -1.499071 4.684877 -1.246554
v 1.663386 4.608713 -1.246554
v 1.587222 4.608713 -1.322718
v 1.587222 4.684877 -1.246554
v -1.499071 2.714759 -1.246554
v -1.575235 2.790922 -1.246554
v -1.499071 2.790922 -1.322718
v 1.663386 2.790922 -1.246554
v 1.587222 2.714759 -1.246554
v 1.587222 2.790922 -1.322718
v 0.298601 4.754223 0.854352
v 0.374765 4.678059 0.854352
v 0.374765 4.754223 0.930516
v 1.587222 4.678059 0.854352
v 1.663386 4.754223 0.854352
v 1.587222 4.754223 0.930516
v 0.374765 6.182485 0.854352
v 0.298601 6.106320 0.854352
v 0.374765 6.106320 0.930516
v 1.663386 6.106320 0.854352
v 1.587222 6.182485 0.854352
v 1.587222 6.106320 0.930516
v 0.374765 6.106320 -1.347833
v 0.298601 6.106320 -1.271670
v 0.374765 6.182485 -1.271670
v 1.663386 6.106320 -1.271670
v 1.587222 6.106320 -1.347833
v 1.587222 6.182485 -1.271670
v 0.374765 4.678059 -1.271670
v 0.298601 4.754223 -1.271670
v 0.374765 4.754223 -1.347833
v 1.663386 4.754223 -1.271670
v 1.587222 4.678059 -1.271670
v 1.587222 4.754223 -1.347833
v -1.784194 4.754223 0.874354
v -1.708030 4.678059 0.874354
v -1.708030 4.754223 0.950517
v 0.183299 4.678059 0.874354
v 0.259463 4.754223 0.874354
v 0.183299 4.754223 0.950517
v -1.708030 6.182485 0.874354
v -1.784194 6.106320 0.874354
v -1.708030 6.106320 0.950517
v 0.259463 6.106320 0.874354
v 0.183299 6.182485 0.874354
v 0.183299 6.106320 0.950517
v -1.708030 6.106320 -1.295193
v -1.784194 6.106320 -1.219030
v -1.708030 6.182485 -1.219030
v 0.259463 6.106320 -1.219030
v 0.183299 6.106320 -1.295193
v 0.183299 6.182485 -1.219030
v -1.708030 4.678059 -1.219030
v -1.784194 4.754223 -1.219030
v -1.708030 4.754223 -1.295193
v 0.259463 4.754223 -1.219030
v 0.183299 4.678059 -1.219030
v 0.183299 4.754223 -1.295193
v -1.566950 4.754223 1.980878
v -1.490786 4.678059 1.980878
v -1.490786 4.754223 2.057042
v 1.683658 4.678059 1.980878
v 1.759822 4.754223 1.980878
v 1.683658 4.754223 2.057042
v -1.490786 6.182485 1.980878
v -1.566950 6.106320 1.980878
v -1.490786 6.106320 2.057042
v 1.759822 6.106320 1.980878
v 1.683658 6.182485 1.980878
v 1.683658 6.106320 2.057042
v -1.490786 6.106320 0.935341
v -1.566950 6.106320 1.011504
v -1.490786 6.182485 1.011504
v 1.759822 6.106320 1.011504
v 1.683658 6.106320 0.935341
v 1.683658 6.182485 1.011504
v -1.490786 4.678059 1.011504
v -1.566950 4.754223 1.011504
v -1.490786 4.754223 0.935341
v 1.759822 4.754223 1.011504
v 1.683658 4.678059 1.011504
v 1.683658 4.754223 0.935341
v -1.663386 6.259698 1.990091
v -1.587222 6.183534 1.990091
v -1.587222 6.259698 2.066255
v 1.587222 6.183534 1.990091
v 1.663386 6.259698 1.990091
v 1.587222 6.259698 2.066255
v -1.587222 7.469565 1.990091
v -1.663386 7.393401 1.990091
v -1.587222 7.393401 2.066255
v 1.663386 7.393401 1.990091
v 1.587222 7.469565 1.990091
v 1.587222 7.393401 2.066255
v -1.587222 7.393401 -1.260518
v -1.663386 7.393401 -1.184354
v -1.587222 7.469565 -1.184354
v 1.663386 7.393401 -1.184354
v 1.587222 7.393401 -1.260518
v 1.587222 7.469565 -1.184354
v -1.587222 6.183534 -1.184354
v -1.663386 6.259698 -1.184354
v -1.587222 6.259698 -1.260518
v 1.663386 6.259698 -1.184354
v 1.587222 6.183534 -1.184354
v 1.587222 6.259698 -1.260518
vt 0.629805 0.970288
vt 0.630642 0.885177
vt 0.715829 0.884881
vt 0.493371 0.143809
vt 0.498440 0.012525
vt 0.601503 0.014038
vt 0.600111 0.142301
vt 0.497207 0.141805
vt 0.600342 0.146331
vt 0.599576 0.275492
vt 0.496747 0.275640
vt 0.497238 0.145870
vt 0.497099 0.413423
vt 0.599921 0.413045
vt 0.601224 0.542080
vt 0.498043 0.542966
vt 0.605355 0.013259
vt 0.170044 0.899315
vt 0.169206 0.984415
vt 0.604087 0.144211
vt 0.600230 0.409021
vt 0.497086 0.409369
vt 0.496756 0.279692
vt 0.599895 0.279517
vt 0.492901 0.277673
vt 0.494021 0.543041
vt 0.493242 0.411410
vt 0.498558 0.008483
vt 0.601848 0.010048
vt 0.603591 0.277380
vt 0.605251 0.542076
vt 0.603933 0.411142
vt 0.623937 0.083541
vt 0.624591 0.222751
vt 0.945038 0.920849
vt 0.944685 0.833129
vt 0.744636 0.845700
vt 0.793167 0.846195
vt 0.792146 0.934428
vt 0.743876 0.934235
vt 0.791650 0.937174
vt 0.700560 0.081459
vt 0.627878 0.081539
vt 0.743863 0.937019
vt 0.628573 0.224699
vt 0.701217 0.224171
vt 0.701290 0.294360
vt 0.629611 0.294913
vt 0.775535 0.218215
vt 0.704760 0.222069
vt 0.704117 0.083548
vt 0.774827 0.086736
vt 0.700606 0.220026
vt 0.628390 0.220541
vt 0.627752 0.085721
vt 0.699978 0.085601
vt 0.741284 0.935674
vt 0.741915 0.845644
vt 0.625933 0.296134
vt 0.630113 0.299013
vt 0.701538 0.298441
vt 0.794457 0.936027
vt 0.795890 0.846198
vt 0.705155 0.295220
vt 0.884513 0.934531
vt 0.884056 0.850223
vt 0.721726 0.353856
vt 0.722554 0.486539
vt 0.725672 0.356197
vt 0.798253 0.356205
vt 0.798736 0.483523
vt 0.726453 0.484138
vt 0.798469 0.487842
vt 0.798655 0.540391
vt 0.728104 0.541096
vt 0.726769 0.488453
vt 0.726327 0.297533
vt 0.798031 0.297763
vt 0.797994 0.351861
vt 0.725863 0.351865
vt 0.802165 0.353793
vt 0.855299 0.356668
vt 0.855917 0.483105
vt 0.802651 0.485924
vt 0.798201 0.293445
vt 0.726296 0.293202
vt 0.011173 0.904925
vt 0.059545 0.905331
vt 0.724182 0.542336
vt 0.007874 0.989720
vt 0.802531 0.541697
vt 0.802165 0.295793
vt 0.798218 0.544676
vt 0.728313 0.545403
vt 0.062398 0.905348
vt 0.008321 0.904884
vt 0.551671 0.936302
vt 0.454707 0.847989
vt 0.453680 0.758800
vt 0.550990 0.879286
vt 0.964188 0.814036
vt 0.928005 0.813816
vt 0.928208 0.781302
vt 0.964445 0.781493
vt 0.928201 0.778416
vt 0.396238 0.903765
vt 0.450722 0.903808
vt 0.964489 0.778616
vt 0.450581 0.845811
vt 0.396070 0.846028
vt 0.395297 0.760401
vt 0.449639 0.759889
vt 0.391287 0.759314
vt 0.391997 0.848314
vt 0.342970 0.846379
vt 0.342309 0.760763
vt 0.396177 0.850379
vt 0.450586 0.850152
vt 0.450696 0.899468
vt 0.396231 0.899436
vt 0.967213 0.780084
vt 0.454830 0.901590
vt 0.967066 0.814070
vt 0.449676 0.755561
vt 0.395390 0.756071
vt 0.925452 0.779866
vt 0.392106 0.901599
vt 0.925128 0.813813
vt 0.008272 0.803285
vt 0.010142 0.883007
vt 0.441617 0.978082
vt 0.391194 0.979555
vt 0.951686 0.650304
vt 0.987103 0.650464
vt 0.986865 0.703351
vt 0.011949 0.707375
vt 0.065434 0.711921
vt 0.066339 0.800559
vt 0.012269 0.800988
vt 0.011876 0.711770
vt 0.952615 0.591750
vt 0.987851 0.592168
vt 0.987003 0.647541
vt 0.951821 0.647395
vt 0.156021 0.880797
vt 0.071144 0.881977
vt 0.070387 0.802767
vt 0.155402 0.805109
vt 0.067121 0.880805
vt 0.014069 0.881677
vt 0.012409 0.805347
vt 0.066283 0.804920
vt 0.948597 0.704684
vt 0.949044 0.648794
vt 0.949736 0.591697
vt 0.069423 0.709649
vt 0.989753 0.648995
vt 0.990730 0.592196
vt 0.067166 0.885110
vt 0.014333 0.885999
vt 0.473872 0.919213
vt 0.473344 0.832726
vt 0.262123 0.609536
vt 0.262877 0.743996
vt 0.266102 0.611811
vt 0.320282 0.611847
vt 0.321087 0.741283
vt 0.266814 0.741670
vt 0.321162 0.745573
vt 0.321081 0.784560
vt 0.267811 0.785069
vt 0.267081 0.745968
vt 0.266378 0.567918
vt 0.320270 0.568259
vt 0.320311 0.607530
vt 0.266266 0.607499
vt 0.324365 0.609552
vt 0.363158 0.611162
vt 0.364011 0.741506
vt 0.325197 0.743473
vt 0.320416 0.563968
vt 0.266416 0.563610
vt 0.815269 0.884098
vt 0.851534 0.884479
vt 0.263852 0.786150
vt 0.811692 0.970978
vt 0.325064 0.785647
vt 0.324417 0.566186
vt 0.321090 0.788853
vt 0.267871 0.789372
vt 0.854381 0.884509
vt 0.812422 0.884063
vt 0.291459 0.280689
vt 0.292766 0.415222
vt 0.282469 0.952074
vt 0.281680 0.867083
vt 0.298578 0.012725
vt 0.343014 0.013790
vt 0.340706 0.143094
vt 0.296125 0.142671
vt 0.340735 0.147358
vt 0.340168 0.278313
vt 0.295498 0.278512
vt 0.296032 0.146949
vt 0.296870 0.417304
vt 0.341439 0.416677
vt 0.344525 0.546122
vt 0.299554 0.547106
vt 0.473436 0.410003
vt 0.345496 0.414492
vt 0.344239 0.280443
vt 0.472175 0.282515
vt 0.341492 0.412407
vt 0.296713 0.413015
vt 0.295468 0.282804
vt 0.340258 0.282591
vt 0.292054 0.144750
vt 0.294734 0.011397
vt 0.295348 0.547240
vt 0.298918 0.008471
vt 0.342983 0.009534
vt 0.344749 0.145241
vt 0.346955 0.012706
vt 0.348735 0.546069
vt 0.925745 0.719491
vt 0.928497 0.720933
vt 0.964777 0.720962
vt 0.967513 0.719485
vt 0.989582 0.704777
vt 0.065342 0.707507
vt 0.951311 0.703263
vt 0.007874 0.709508
vt 0.084149 0.985006
vt 0.084993 0.897806
vt 0.494670 0.011471
vt 0.714964 0.973005
vt 0.700008 0.010109
vt 0.704223 0.008388
vt 0.624371 0.007857
vt 0.628245 0.009877
vt 0.010567 0.988213
vt 0.722252 0.295465
vt 0.061088 0.989938
vt 0.058448 0.988375
vt 0.814416 0.969517
vt 0.262326 0.565805
vt 0.853038 0.971233
vt 0.850374 0.969755
vt 0.366953 0.863950
vt 0.367823 0.953535
vt 0.500118 0.920488
vt 0.499616 0.830952
vt 0.387291 0.922912
vt 0.440377 0.921667
vt 0.518326 0.878943
vt 0.519009 0.938334
vt 0.920202 0.936150
vt 0.919651 0.847797
vt 0.991691 0.830401
vt 0.992126 0.923100
vn -0.367002 -0.854763 -0.367001
vn 0.367002 -0.854763 -0.367001
vn 0.367000 -0.854764 0.367001
vn -0.367000 -0.854764 0.367001
vn 0.367001 -0.367002 0.854763
vn 0.367001 0.367003 0.854763
vn -0.367001 0.367003 0.854763
vn -0.367001 -0.367002 0.854763
vn -0.854763 0.367002 0.367001
vn -0.854763 0.367002 -0.367001
vn -0.854764 -0.367000 -0.367001
vn -0.854763 -0.367001 0.367001
vn 0.854764 -0.367000 -0.367001
vn 0.854763 0.367002 -0.367001
vn 0.854763 0.367002 0.367001
vn 0.854763 -0.367001 0.367001
vn 0.367000 0.854765 0.367000
vn 0.367000 0.854764 -0.367000
vn -0.367000 0.854764 -0.367000
vn -0.367000 0.854765 0.367000
vn 0.367001 0.367002 -0.854763
vn 0.367001 -0.367000 -0.854764
vn -0.367001 -0.367000 -0.854764
vn -0.367001 0.367002 -0.854763
vn -0.367000 -0.854764 -0.367002
vn 0.366999 -0.854764 -0.367002
vn 0.367000 -0.854764 0.367001
vn -0.367000 -0.854764 0.367000
vn 0.367001 -0.367002 0.854763
vn 0.367001 0.367001 0.854764
vn -0.367001 0.367001 0.854764
vn -0.367001 -0.367002 0.854763
vn -0.854764 0.367001 0.367001
vn -0.854763 0.367000 -0.367003
vn -0.854762 -0.367002 -0.367002
vn -0.854763 -0.367002 0.367001
vn 0.854762 -0.367002 -0.367003
vn 0.854763 0.367001 -0.367003
vn 0.854763 0.367001 0.367002
vn 0.854763 -0.367002 0.367001
vn 0.367001 0.854764 0.367002
vn 0.367001 0.854763 -0.367003
vn -0.367001 0.854763 -0.367003
vn -0.367001 0.854763 0.367002
vn 0.366999 0.366999 -0.854765
vn 0.366999 -0.367001 -0.854765
vn -0.366999 -0.367001 -0.854764
vn -0.367000 0.366999 -0.854765
vn -0.366998 -0.854765 -0.367001
vn 0.366999 -0.854764 -0.367001
vn 0.367000 -0.854764 0.367001
vn -0.366999 -0.854764 0.367000
vn 0.367000 -0.367001 0.854764
vn 0.367001 0.367000 0.854764
vn -0.367001 0.367000 0.854764
vn -0.367000 -0.367002 0.854763
vn -0.854763 0.367001 0.367001
vn -0.854763 0.367002 -0.367002
vn -0.854762 -0.367003 -0.367002
vn -0.854763 -0.367002 0.367002
vn 0.854762 -0.367002 -0.367003
vn 0.854763 0.367001 -0.367002
vn 0.854764 0.367000 0.367002
vn 0.854763 -0.367002 0.367002
vn 0.367002 0.854763 0.367002
vn 0.367000 0.854763 -0.367002
vn -0.367000 0.854764 -0.367002
vn -0.367001 0.854763 0.367002
vn 0.367000 0.367000 -0.854764
vn 0.366999 -0.367002 -0.854764
vn -0.366999 -0.367003 -0.854764
vn -0.367000 0.367001 -0.854764
vn -0.367002 -0.854762 -0.367004
vn 0.367002 -0.854762 -0.367004
vn 0.367002 -0.854762 0.367002
vn -0.367002 -0.854762 0.367002
vn 0.367001 -0.367000 0.854764
vn 0.367001 0.367000 0.854764
vn -0.367001 0.367000 0.854764
vn -0.367001 -0.367000 0.854764
vn -0.854764 0.366999 0.367002
vn -0.854763 0.367000 -0.367003
vn -0.854763 -0.367000 -0.367003
vn -0.854764 -0.366999 0.367002
vn 0.854763 -0.367000 -0.367003
vn 0.854763 0.367000 -0.367003
vn 0.854764 0.367000 0.367002
vn 0.854764 -0.367000 0.367002
vn 0.367002 0.854762 0.367002
vn 0.367002 0.854762 -0.367004
vn -0.367002 0.854762 -0.367004
vn -0.367002 0.854762 0.367002
vn 0.366999 0.366999 -0.854765
vn 0.366999 -0.366999 -0.854765
vn -0.366999 -0.366998 -0.854765
vn -0.366999 0.366998 -0.854765
vn -0.367002 -0.854762 -0.367004
vn 0.367002 -0.854762 -0.367004
vn 0.367003 -0.854762 0.367004
vn -0.367003 -0.854761 0.367004
vn 0.367001 -0.366998 0.854765
vn 0.367001 0.366998 0.854765
vn -0.367001 0.366998 0.854765
vn -0.367001 -0.366998 0.854765
vn -0.854764 0.366998 0.367002
vn -0.854764 0.366999 -0.367003
vn -0.854764 -0.366999 -0.367003
vn -0.854764 -0.366998 0.367002
vn 0.854763 -0.366999 -0.367003
vn 0.854763 0.366999 -0.367003
vn 0.854764 0.366999 0.367002
vn 0.854764 -0.366999 0.367002
vn 0.367003 0.854762 0.367004
vn 0.367002 0.854762 -0.367004
vn -0.367002 0.854762 -0.367004
vn -0.367003 0.854761 0.367004
vn 0.366999 0.366998 -0.854765
vn 0.366999 -0.366998 -0.854765
vn -0.367000 -0.366998 -0.854765
vn -0.367000 0.366998 -0.854765
vn -0.367002 -0.854762 -0.367002
vn 0.367002 -0.854762 -0.367002
vn 0.367002 -0.854762 0.367002
vn -0.367002 -0.854763 0.367002
vn 0.367001 -0.367000 0.854764
vn 0.367001 0.367000 0.854764
vn -0.367001 0.367000 0.854764
vn -0.367001 -0.367000 0.854764
vn -0.854764 0.367000 0.367001
vn -0.854764 0.366999 -0.367001
vn -0.854764 -0.366999 -0.367001
vn -0.854764 -0.367000 0.367001
vn 0.854764 -0.367000 -0.367001
vn 0.854764 0.367000 -0.367001
vn 0.854764 0.367000 0.367001
vn 0.854764 -0.367000 0.367001
vn 0.367002 0.854762 0.367002
vn 0.367002 0.854762 -0.367002
vn -0.367002 0.854762 -0.367002
vn -0.367002 0.854763 0.367002
vn 0.367001 0.367000 -0.854764
vn 0.367001 -0.367000 -0.854764
vn -0.367002 -0.366999 -0.854764
vn -0.367002 0.366999 -0.854764
vn -0.367004 -0.854762 -0.367002
vn 0.367004 -0.854762 -0.367002
vn 0.367002 -0.854762 0.367003
vn -0.367002 -0.854762 0.367002
vn 0.367001 -0.366999 0.854764
vn 0.367001 0.366999 0.854764
vn -0.367001 0.366999 0.854764
vn -0.367001 -0.366999 0.854764
vn -0.854764 0.367000 0.367002
vn -0.854765 0.366999 -0.367001
vn -0.854765 -0.366999 -0.367001
vn -0.854764 -0.367000 0.367002
vn 0.854765 -0.366999 -0.367001
vn 0.854765 0.366999 -0.367001
vn 0.854764 0.367000 0.367002
vn 0.854764 -0.367000 0.367002
vn 0.367002 0.854762 0.367003
vn 0.367004 0.854762 -0.367002
vn -0.367004 0.854762 -0.367002
vn -0.367002 0.854762 0.367002
vn 0.367002 0.366999 -0.854764
vn 0.367002 -0.366999 -0.854764
vn -0.367002 -0.366999 -0.854764
vn -0.367002 0.366999 -0.854764
s 1
g polySurface32
f 19/1/1 23/2/2 4/3/3 2/236/4
f 6/5/5 12/6/6 9/7/7 3/8/8
f 8/9/9 14/10/10 20/11/11 1/12/12
f 22/13/13 16/14/14 10/15/15 5/16/16
f 11/234/17 18/18/18 15/19/19 7/233/20
f 17/21/21 24/22/22 21/23/23 13/24/24
f 2/4/4 1/12/12 20/11/11 19/25/1
f 3/8/8 2/4/4 4/235/3 6/5/5
f 1/12/12 3/8/8 9/7/7 8/9/9
f 5/16/16 4/26/3 23/27/2 22/13/13
f 6/5/5 5/28/16 10/29/15 12/6/6
f 8/9/9 7/20/20 15/30/19 14/10/10
f 7/20/20 9/7/7 12/6/6 11/17/17
f 11/31/17 10/15/15 16/14/14 18/32/18
f 14/10/10 13/24/24 21/23/23 20/11/11
f 13/24/24 15/30/19 18/32/18 17/21/21
f 17/21/21 16/14/14 22/13/13 24/22/22
f 19/25/1 21/23/23 24/22/22 23/27/2
f 1/12/12 2/4/4 3/8/8
f 4/235/3 5/28/16 6/5/5
f 7/20/20 8/9/9 9/7/7
f 10/29/15 11/17/17 12/6/6
f 13/24/24 14/10/10 15/30/19
f 16/14/14 17/21/21 18/32/18
f 19/25/1 20/11/11 21/23/23
f 22/13/13 23/27/2 24/22/22
s 5
f 43/259/25 47/260/26 28/35/27 26/36/28
f 30/37/29 36/38/30 33/39/31 27/40/32
f 32/237/33 38/42/34 44/43/35 25/240/36
f 46/45/37 40/46/38 34/47/39 29/48/40
f 35/49/41 42/50/42 39/51/43 31/52/44
f 41/53/45 48/54/46 45/55/47 37/56/48
f 26/239/28 25/240/36 44/43/35 43/33/25
f 27/40/32 26/57/28 28/58/27 30/37/29
f 25/44/36 27/40/32 33/39/31 32/41/33
f 29/48/40 28/59/27 47/34/26 46/45/37
f 30/60/29 29/48/40 34/47/39 36/61/30
f 32/237/33 31/238/44 39/51/43 38/42/34
f 31/62/44 33/39/31 36/38/30 35/63/41
f 35/64/41 34/47/39 40/46/38 42/50/42
f 38/42/34 37/56/48 45/55/47 44/43/35
f 37/56/48 39/51/43 42/50/42 41/53/45
f 41/53/45 40/46/38 46/45/37 48/54/46
f 43/33/25 45/55/47 48/54/46 47/34/26
f 25/44/36 26/57/28 27/40/32
f 28/59/27 29/48/40 30/60/29
f 31/62/44 32/41/33 33/39/31
f 34/47/39 35/64/41 36/61/30
f 37/56/48 38/42/34 39/51/43
f 40/46/38 41/53/45 42/50/42
f 43/33/25 44/43/35 45/55/47
f 46/45/37 47/34/26 48/54/46
s 9
f 67/65/49 71/66/50 52/258/51 50/257/52
f 54/69/53 60/70/54 57/71/55 51/72/56
f 56/73/57 62/74/58 68/75/59 49/76/60
f 70/77/61 64/78/62 58/79/63 53/80/64
f 59/81/65 66/82/66 63/83/67 55/84/68
f 65/244/69 72/241/70 69/87/71 61/88/72
f 50/68/52 49/76/60 68/75/59 67/89/49
f 51/72/56 50/68/52 52/67/51 54/69/53
f 49/76/60 51/72/56 57/71/55 56/73/57
f 53/80/64 52/67/51 71/242/50 70/77/61
f 54/69/53 53/80/64 58/79/63 60/70/54
f 56/73/57 55/84/68 63/91/67 62/74/58
f 55/84/68 57/71/55 60/70/54 59/81/65
f 59/81/65 58/79/63 64/78/62 66/92/66
f 62/74/58 61/93/72 69/94/71 68/75/59
f 61/88/72 63/95/67 66/243/66 65/244/69
f 65/85/69 64/78/62 70/77/61 72/86/70
f 67/96/49 69/87/71 72/241/70 71/90/50
f 49/76/60 50/68/52 51/72/56
f 52/67/51 53/80/64 54/69/53
f 55/84/68 56/73/57 57/71/55
f 58/79/63 59/81/65 60/70/54
f 61/93/72 62/74/58 63/91/67
f 64/78/62 65/85/69 66/92/66
f 67/89/49 68/75/59 69/94/71
f 70/77/61 71/242/50 72/86/70
s 13
f 91/97/73 95/256/74 76/255/75 74/100/76
f 78/101/77 84/102/78 81/103/79 75/104/80
f 80/105/81 86/226/82 92/227/83 73/108/84
f 94/109/85 88/110/86 82/111/87 77/112/88
f 83/113/89 90/114/90 87/115/91 79/116/92
f 89/117/93 96/118/94 93/119/95 85/120/96
f 74/121/76 73/108/84 92/227/83 91/228/73
f 75/104/80 74/121/76 76/123/75 78/101/77
f 73/108/84 75/104/80 81/103/79 80/105/81
f 77/112/88 76/99/75 95/98/74 94/109/85
f 78/124/77 77/112/88 82/111/87 84/125/78
f 80/105/81 79/126/92 87/225/91 86/226/82
f 79/126/92 81/103/79 84/102/78 83/128/89
f 83/113/89 82/111/87 88/110/86 90/114/90
f 86/106/82 85/120/96 93/119/95 92/107/83
f 85/120/96 87/127/91 90/114/90 89/117/93
f 89/117/93 88/110/86 94/109/85 96/118/94
f 91/122/73 93/119/95 96/118/94 95/98/74
f 73/108/84 74/121/76 75/104/80
f 76/99/75 77/112/88 78/124/77
f 79/126/92 80/105/81 81/103/79
f 82/111/87 83/113/89 84/125/78
f 85/120/96 86/106/82 87/127/91
f 88/110/86 89/117/93 90/114/90
f 91/122/73 92/107/83 93/119/95
f 94/109/85 95/98/74 96/118/94
s 17
f 115/253/97 119/254/98 100/131/99 98/132/100
f 102/133/101 108/134/102 105/135/103 99/231/104
f 104/137/105 110/138/106 116/139/107 97/140/108
f 118/141/109 112/142/110 106/143/111 101/144/112
f 107/145/113 114/146/114 111/147/115 103/148/116
f 113/149/117 120/150/118 117/151/119 109/152/120
f 98/232/100 97/140/108 116/139/107 115/129/97
f 99/231/104 98/153/100 100/154/99 102/133/101
f 97/140/108 99/136/104 105/230/103 104/137/105
f 101/144/112 100/154/99 119/155/98 118/141/109
f 102/133/101 101/144/112 106/143/111 108/134/102
f 104/137/105 103/156/116 111/147/115 110/138/106
f 103/229/116 105/135/103 108/134/102 107/157/113
f 107/157/113 106/143/111 112/142/110 114/158/114
f 110/138/106 109/152/120 117/151/119 116/139/107
f 109/152/120 111/147/115 114/146/114 113/149/117
f 113/149/117 112/159/110 118/160/109 120/150/118
f 115/129/97 117/151/119 120/150/118 119/130/98
f 97/140/108 98/232/100 99/136/104
f 100/154/99 101/144/112 102/133/101
f 103/156/116 104/137/105 105/230/103
f 106/143/111 107/157/113 108/134/102
f 109/152/120 110/138/106 111/147/115
f 112/159/110 113/149/117 114/146/114
f 115/129/97 116/139/107 117/151/119
f 118/160/109 119/130/98 120/150/118
s 21
f 139/161/121 143/162/122 124/252/123 122/251/124
f 126/165/125 132/166/126 129/167/127 123/168/128
f 128/169/129 134/170/130 140/171/131 121/172/132
f 142/173/133 136/174/134 130/175/135 125/176/136
f 131/177/137 138/178/138 135/179/139 127/180/140
f 137/248/141 144/245/142 141/183/143 133/184/144
f 122/164/124 121/172/132 140/171/131 139/185/121
f 123/168/128 122/164/124 124/163/123 126/165/125
f 121/172/132 123/168/128 129/167/127 128/169/129
f 125/176/136 124/163/123 143/246/122 142/173/133
f 126/165/125 125/176/136 130/175/135 132/166/126
f 128/169/129 127/180/140 135/187/139 134/170/130
f 127/180/140 129/167/127 132/166/126 131/177/137
f 131/177/137 130/175/135 136/174/134 138/188/138
f 134/170/130 133/189/144 141/190/143 140/171/131
f 133/184/144 135/191/139 138/247/138 137/248/141
f 137/181/141 136/174/134 142/173/133 144/182/142
f 139/192/121 141/183/143 144/245/142 143/186/122
f 121/172/132 122/164/124 123/168/128
f 124/163/123 125/176/136 126/165/125
f 127/180/140 128/169/129 129/167/127
f 130/175/135 131/177/137 132/166/126
f 133/189/144 134/170/130 135/187/139
f 136/174/134 137/181/141 138/188/138
f 139/185/121 140/171/131 141/190/143
f 142/173/133 143/246/122 144/182/142
s 25
f 163/249/145 167/250/146 148/195/147 146/196/148
f 150/197/149 156/198/150 153/199/151 147/200/152
f 152/201/153 158/202/154 164/203/155 145/204/156
f 166/205/157 160/206/158 154/207/159 149/208/160
f 155/209/161 162/210/162 159/211/163 151/212/164
f 161/213/165 168/214/166 165/215/167 157/216/168
f 146/217/148 145/204/156 164/203/155 163/193/145
f 147/200/152 146/217/148 148/218/147 150/197/149
f 145/204/156 147/200/152 153/199/151 152/201/153
f 149/208/160 148/219/147 167/194/146 166/205/157
f 150/197/149 149/220/160 154/221/159 156/198/150
f 152/201/153 151/222/164 159/211/163 158/202/154
f 151/222/164 153/199/151 156/198/150 155/223/161
f 155/224/161 154/207/159 160/206/158 162/210/162
f 158/202/154 157/216/168 165/215/167 164/203/155
f 157/216/168 159/211/163 162/210/162 161/213/165
f 161/213/165 160/206/158 166/205/157 168/214/166
f 163/193/145 165/215/167 168/214/166 167/194/146
f 145/204/156 146/217/148 147/200/152
f 148/218/147 149/220/160 150/197/149
f 151/222/164 152/201/153 153/199/151
f 154/221/159 155/223/161 156/198/150
f 157/216/168 158/202/154 159/211/163
f 160/206/158 161/213/165 162/210/162
f 163/193/145 164/203/155 165/215/167
f 166/205/157 167/194/146 168/214/166
