# This file uses centimeters as units for non-parametric coordinates.

g default
v -1.965441 0.494780 0.049611
v -2.360083 0.197710 0.049611
v 0.127336 -0.044297 0.444275
v -0.633497 -0.500187 0.323558
v -0.641678 -0.500187 -0.054515
v -0.178810 -0.500187 1.229717
v -2.360083 -0.441395 2.342023
v -2.301291 -0.500187 2.342023
v -2.301291 -0.441395 2.400815
v 0.068544 -0.500187 2.342023
v 0.127336 -0.441395 2.342023
v 0.068544 -0.441395 2.400815
v -2.301291 0.494780 2.342023
v -2.360083 0.435988 2.342023
v -2.301291 0.435988 2.400815
v 0.127336 0.435988 2.342023
v 0.068544 0.494780 2.342023
v 0.068544 0.435988 2.400815
v -2.360083 0.435988 -1.271521
v -2.301291 0.494780 -1.271521
v -2.301291 0.435988 -1.330313
v 0.068544 0.494780 -1.271521
v 0.127336 0.435988 -1.271521
v 0.068544 0.435988 -1.330313
v -2.301291 -0.500187 -1.271521
v -2.360083 -0.441395 -1.271521
v -2.301291 -0.441395 -1.330313
v 0.127336 -0.441395 -1.271521
v 0.068544 -0.500187 -1.271521
v 0.068544 -0.441395 -1.330313
v -2.360083 0.462594 0.454498
v -2.321517 0.494780 0.459321
v 0.127336 0.435988 0.444275
v 0.068544 0.494780 0.433187
v -2.360083 -0.441395 0.049611
v -2.301291 -0.500187 0.058939
v 0.086929 -0.500187 -0.824575
v 0.127336 -0.480884 -0.811748
v -2.360083 0.466793 -0.447485
v -2.325759 0.494780 -0.451456
v 0.076393 -0.500187 1.376741
v 0.127336 -0.475006 1.352964
v 1.687649 0.514673 1.194097
v 1.046229 -0.468617 1.194097
v 0.436381 0.494780 1.470057
v 0.136022 0.219326 1.559407
v 0.136022 0.443322 -1.270742
v 0.187480 0.494780 -1.270742
v 0.187480 0.443322 -1.322201
v 1.600448 0.459385 -1.322201
v 1.603165 0.493585 -1.284075
v 0.187480 -0.500187 -1.270742
v 0.136022 -0.448729 -1.270742
v 0.187480 -0.448729 -1.322201
v 1.616626 -0.418608 -1.322201
v 1.602232 -0.467673 -1.270798
v 2.603991 0.522375 1.061573
v 2.652838 0.485477 1.054508
v 2.623441 0.463970 -0.786350
v 2.578405 0.494780 -0.770030
v 0.183440 -0.494084 1.540375
v 0.136022 -0.448729 1.559407
v 2.601601 -0.459734 1.058960
v 2.652838 -0.406574 1.054508
v 2.572614 -0.496504 -1.270874
v 2.571983 -0.448729 -1.322201
v 2.624077 -0.444905 -1.270746
v 2.575883 0.083042 -1.322201
v 2.623441 0.094200 -1.280986
v 0.123581 0.472290 0.445542
v 0.162310 0.505424 0.444099
v 3.966418 0.484307 1.991287
v 3.901543 -0.489715 1.798848
v 2.666397 0.447405 -1.330313
v 2.619022 0.447405 -1.282939
v 2.666397 0.494780 -1.282939
v 4.606094 0.383232 -1.375375
v 4.606557 0.430457 -1.328000
v 2.666397 -0.500187 -1.282939
v 2.619022 -0.452813 -1.282939
v 2.666397 -0.452813 -1.330313
v 4.583042 -0.500029 -1.328000
v 4.583533 -0.452813 -1.375375
v 2.619022 0.447405 1.486475
v 2.663384 0.494435 1.503096
v 5.060326 0.494356 2.248537
v 5.106441 0.447405 2.259382
v 5.059066 0.447405 -1.299670
v 5.059066 0.494780 -1.252295
v 5.106441 0.447405 -1.252295
v 5.059066 -0.500187 -1.252296
v 5.059066 -0.452813 -1.299670
v 5.106441 -0.452813 -1.252296
v 2.665049 -0.499812 1.497686
v 2.619022 -0.452813 1.486475
v 5.062190 -0.499803 2.242468
v 5.106441 -0.452813 2.259382
v -4.856363 -0.463340 2.372081
v -4.819516 -0.500187 2.372081
v -4.819516 -0.463340 2.408927
v -2.405791 -0.500187 2.372081
v -2.368944 -0.463340 2.372081
v -2.405791 -0.463340 2.408927
v -4.819516 0.494780 2.372081
v -4.856363 0.457933 2.372081
v -4.819516 0.457933 2.408927
v -2.368944 0.457933 2.372081
v -2.405791 0.494780 2.372081
v -2.405791 0.457933 2.408927
v -4.819516 0.457933 -1.322201
v -4.856363 0.457933 -1.285354
v -4.819516 0.494780 -1.285354
v -2.368944 0.457933 -1.285354
v -2.405791 0.457933 -1.322201
v -2.405791 0.494780 -1.285354
v -4.819516 -0.500187 -1.285354
v -4.856363 -0.463340 -1.285354
v -4.819516 -0.463340 -1.322201
v -2.368944 -0.463340 -1.285354
v -2.405791 -0.500187 -1.285354
v -2.405791 -0.463340 -1.322201
vt 0.314207 0.935402
vt 0.258291 0.932235
vt 0.261219 0.861420
vt 0.257270 0.934575
vt 0.314166 0.936914
vt 0.255960 0.932263
vt 0.258885 0.861164
vt 0.318614 0.863533
vt 0.327272 0.926359
vt 0.326491 0.944045
vt 0.260409 0.859033
vt 0.318429 0.860970
vt 0.369066 0.868220
vt 0.342251 0.936800
vt 0.342202 0.938127
vt 0.370176 0.865951
vt 0.365887 0.937073
vt 0.366955 0.939436
vt 0.371395 0.868274
vt 0.368247 0.937208
vt 0.296079 0.826377
vt 0.269254 0.761811
vt 0.335565 0.767495
vt 0.324474 0.816310
vt 0.290572 0.832585
vt 0.263005 0.830368
vt 0.268947 0.759370
vt 0.336005 0.765009
vt 0.373517 0.769116
vt 0.336103 0.816581
vt 0.319352 0.845460
vt 0.232823 0.857207
vt 0.291028 0.834331
vt 0.266907 0.761082
vt 0.260528 0.830640
vt 0.374202 0.766753
vt 0.372021 0.837247
vt 0.359331 0.837193
vt 0.375960 0.768700
vt 0.374480 0.837776
vt 0.372686 0.839663
vt 0.358983 0.838537
vt 0.743178 0.750432
vt 0.382079 0.756552
vt 0.644085 0.786023
vt 0.410970 0.757191
vt 0.643011 0.787859
vt 0.232661 0.859699
vt 0.413296 0.685066
vt 0.743384 0.752455
vt 0.385707 0.683502
vt 0.644977 0.787832
vt 0.385808 0.681902
vt 0.396879 0.869066
vt 0.325635 0.963605
vt 0.256354 0.961535
vt 0.411005 0.786199
vt 0.414330 0.683756
vt 0.409828 0.787299
vt 0.412512 0.757067
vt 0.365412 0.966190
vt 0.229680 0.931583
vt 0.414822 0.685305
vt 0.519456 0.862823
vt 0.524304 0.688951
vt 0.393722 0.938627
vt 0.411356 0.787764
vt 0.411903 0.758574
vt 0.522769 0.689041
vt 0.521000 0.761696
vt 0.551514 0.689614
vt 0.520488 0.760153
vt 0.517928 0.862357
vt 0.522015 0.760366
vt 0.154803 0.732833
vt 0.124857 0.727849
vt 0.126743 0.726604
vt 0.154572 0.731082
vt 0.116912 0.778103
vt 0.150044 0.761243
vt 0.144187 0.799181
vt 0.116322 0.808536
vt 0.137336 0.831085
vt 0.138358 0.810115
vt 0.219520 0.880197
vt 0.217658 0.909159
vt 0.148093 0.906093
vt 0.146720 0.859504
vt 0.221659 0.880731
vt 0.219638 0.909860
vt 0.148082 0.908346
vt 0.217881 0.911330
vt 0.137799 0.833106
vt 0.221750 0.838152
vt 0.223880 0.837701
vt 0.222269 0.836049
vt 0.645558 0.802542
vt 0.172776 0.807271
vt 0.223247 0.808736
vt 0.666100 0.856394
vt 0.746494 0.829993
vt 0.549186 0.761445
vt 0.222392 0.806621
vt 0.172894 0.805737
vt 0.224477 0.806764
vt 0.251443 0.806335
vt 0.608611 0.769316
vt 0.519941 0.790835
vt 0.521498 0.790459
vt 0.208420 0.739578
vt 0.222097 0.765323
vt 0.518278 0.863923
vt 0.208971 0.737971
vt 0.227626 0.732888
vt 0.524244 0.660051
vt 0.603093 0.755412
vt 0.226432 0.731410
vt 0.223634 0.765180
vt 0.583946 0.701404
vt 0.523388 0.687539
vt 0.409373 0.859281
vt 0.228633 0.715363
vt 0.583302 0.699449
vt 0.408932 0.860819
vt 0.407815 0.859657
vt 0.243697 0.730134
vt 0.549111 0.763056
vt 0.678273 0.637756
vt 0.710541 0.645461
vt 0.249371 0.761116
vt 0.735162 0.675552
vt 0.668075 0.857299
vt 0.756924 0.706897
vt 0.628425 0.746545
vt 0.610853 0.692344
vt 0.687914 0.664745
vt 0.714043 0.696046
vt 0.609059 0.692829
vt 0.626509 0.747252
vt 0.609637 0.690722
vt 0.687324 0.662987
vt 0.732444 0.723338
vt 0.635174 0.758366
vt 0.633461 0.759161
vt 0.733677 0.724689
vt 0.635309 0.760367
vt 0.746150 0.827994
vt 0.667765 0.855341
vt 0.647480 0.801903
vt 0.742417 0.790121
vt 0.415382 0.656271
vt 0.551536 0.688026
vt 0.382051 0.758098
vt 0.609396 0.771175
vt 0.600648 0.665412
vt 0.756551 0.708882
vt 0.708529 0.645281
vt 0.243170 0.727968
vt 0.251428 0.808556
vt 0.160207 0.704439
vt 0.117706 0.810074
vt 0.396918 0.866586
vt 0.393557 0.941148
vt 0.262151 0.832706
vt 0.229648 0.934027
vt 0.520381 0.789298
vn -0.330846 0.935551 -0.123636
vn -0.358626 0.857881 0.368004
vn 0.292889 0.910182 0.292891
vn 0.200196 -0.963499 -0.177737
vn -0.292890 -0.910182 0.292890
vn -0.382684 -0.923879 -0.000000
vn 0.272621 -0.959421 -0.072036
vn 0.856532 -0.501909 -0.120169
vn 0.910181 0.292890 0.292891
vn 0.837450 -0.396322 0.376305
vn -0.923880 -0.382683 0.000000
vn -0.910182 -0.292890 0.292891
vn -0.905347 0.404947 -0.127922
vn -0.905821 0.423214 -0.019461
vn -0.906003 0.410164 0.104519
vn -0.848508 0.374173 -0.374203
vn -0.910182 -0.292890 -0.292890
vn -0.292890 -0.910182 -0.292890
vn 0.218725 -0.972698 0.077579
vn 0.867036 -0.492186 0.077467
vn 0.910182 0.292889 -0.292890
vn 0.923879 0.382684 0.000000
vn 0.722240 -0.687430 -0.076220
vn -0.300639 0.953561 -0.018365
vn 0.382683 0.923880 -0.000000
vn 0.292890 0.910182 -0.292891
vn -0.333882 0.937195 0.100939
vn 0.300148 -0.943375 -0.141262
vn 0.333133 -0.938335 0.092463
vn 0.367000 -0.367001 0.854764
vn 0.367000 0.367001 0.854764
vn -0.367000 0.367001 0.854764
vn -0.367000 -0.367001 0.854764
vn 0.367001 0.367000 -0.854764
vn 0.367001 -0.367000 -0.854764
vn -0.367001 -0.367001 -0.854763
vn -0.367001 0.367001 -0.854763
vn 0.334880 -0.867912 0.366856
vn -0.849977 0.374584 0.370441
vn -0.357812 0.856634 -0.371683
vn 0.836656 -0.391336 -0.383228
vn 0.337608 -0.863442 -0.374819
vn 0.290390 0.643035 0.708647
vn 0.331188 -0.619651 0.711581
vn 0.834971 -0.318540 0.448727
vn 0.802679 0.385995 0.454658
vn 0.003233 -0.928661 -0.370916
vn 0.364571 -0.861898 -0.352449
vn 0.140033 -0.728975 0.670064
vn -0.842776 0.535071 0.058549
vn -0.850144 0.372091 -0.372564
vn -0.852831 -0.371289 -0.367183
vn -0.759220 -0.394721 0.517476
vn -0.703036 0.388820 0.595448
vn 0.141158 0.687911 0.711936
vn 0.319734 0.894130 -0.313531
vn 0.100376 0.932328 -0.347404
vn 0.852561 -0.369017 -0.370091
vn 0.796546 0.301415 -0.524084
vn 0.746810 0.621447 -0.236809
vn 0.352357 0.499101 -0.791671
vn 0.358537 -0.379391 -0.852944
vn -0.001764 -0.391953 -0.919983
vn 0.072816 0.391981 -0.917087
vn -0.355310 0.933846 0.041073
vn -0.359312 0.858568 -0.365728
vn -0.034050 -0.687829 0.725074
vn -0.353800 -0.861550 -0.364084
vn -0.021431 0.621017 0.783504
vn -0.363581 -0.370704 -0.854627
vn -0.369582 0.372071 -0.851453
vn 0.000843 0.922213 -0.386681
vn -0.362496 0.855308 -0.370196
vn -0.458243 0.574002 0.678627
vn -0.227526 0.677635 0.699316
vn -0.443995 -0.613330 0.653218
vn -0.371623 -0.853210 -0.365963
vn 0.024793 -0.924337 -0.380771
vn -0.201632 -0.736309 0.645905
vn 0.030297 0.647861 0.761156
vn 0.360804 0.855612 -0.371146
vn 0.396567 -0.843530 -0.362203
vn 0.046445 -0.682742 0.729181
vn 0.768745 -0.377912 0.515958
vn 0.766999 0.379328 0.517515
vn -0.862379 0.297524 0.409612
vn -0.856408 0.363574 -0.366578
vn -0.855359 -0.365765 -0.366848
vn -0.860252 -0.303096 0.409998
vn 0.063156 -0.383468 -0.921392
vn -0.376889 -0.365567 -0.851067
vn -0.371070 0.366647 -0.853157
vn 0.044089 0.383503 -0.922487
vn 0.411342 0.360600 -0.837117
vn 0.433351 -0.357072 -0.827470
vn 0.856467 -0.363466 -0.366546
vn 0.855279 0.365937 -0.366863
vn -0.367001 -0.854763 -0.367001
vn 0.367002 -0.854763 -0.367002
vn 0.367000 -0.854763 0.367002
vn -0.367000 -0.854764 0.367002
vn 0.367000 -0.367000 0.854764
vn 0.367000 0.367000 0.854764
vn -0.367000 0.367001 0.854764
vn -0.367000 -0.367001 0.854764
vn -0.854763 0.367001 0.367002
vn -0.854764 0.367001 -0.367001
vn -0.854764 -0.367001 -0.367001
vn -0.854763 -0.367001 0.367002
vn 0.854763 -0.367000 -0.367002
vn 0.854763 0.367000 -0.367002
vn 0.854763 0.367001 0.367002
vn 0.854763 -0.367001 0.367002
vn 0.367000 0.854763 0.367002
vn 0.367002 0.854763 -0.367002
vn -0.367001 0.854763 -0.367001
vn -0.367000 0.854764 0.367002
vn 0.367001 0.367000 -0.854764
vn 0.367001 -0.367000 -0.854764
vn -0.367001 -0.367001 -0.854764
vn -0.367001 0.367001 -0.854764
s 1
g polySurface85
f 32/1/1 13/2/2 17/3/3
f 6/21/4 8/22/5 36/23/6 4/24/7
f 42/33/8 16/11/9 11/164/10
f 35/55/11 7/56/12 31/5/13 2/10/14
f 39/15/15 19/18/16 26/61/17
f 36/23/6 25/29/18 5/30/19 4/24/7
f 38/42/20 23/16/21 33/12/22 3/31/23
f 1/9/24 34/8/25 22/13/26 40/14/27
f 6/21/4 3/31/23 42/33/8 41/25/28
f 3/31/23 5/30/19 37/38/29 38/42/20
f 4/24/7 3/31/23 6/21/4
f 4/24/7 5/30/19 3/31/23
f 2/10/14 1/9/24 40/14/27 39/15/15
f 31/5/13 32/1/1 1/9/24 2/10/14
f 12/48/30 18/7/31 15/6/32 9/62/33
f 24/19/34 30/54/35 27/66/36 21/20/37
f 8/22/5 7/27/12 35/28/11 36/23/6
f 9/34/33 8/22/5 10/26/38 12/35/30
f 7/165/12 9/62/33 15/6/32 14/4/39
f 11/164/10 10/26/38 41/25/28 42/33/8
f 12/48/30 11/32/10 16/11/9 18/7/31
f 14/4/39 13/2/2 32/1/1 31/5/13
f 13/2/2 15/6/32 18/7/31 17/3/3
f 17/3/3 16/11/9 33/12/22 34/8/25
f 20/17/40 19/18/16 39/15/15 40/14/27
f 21/20/37 20/17/40 22/13/26 24/19/34
f 19/18/16 21/20/37 27/66/36 26/163/17
f 23/16/21 22/13/26 34/8/25 33/12/22
f 24/19/34 23/16/21 28/162/41 30/54/35
f 26/36/17 25/29/18 36/23/6 35/28/11
f 25/29/18 27/39/36 30/40/35 29/37/42
f 29/37/42 28/41/41 38/42/20 37/38/29
f 7/27/12 8/22/5 9/34/33
f 10/26/38 11/164/10 12/35/30
f 13/2/2 14/4/39 15/6/32
f 16/11/9 17/3/3 18/7/31
f 19/18/16 20/17/40 21/20/37
f 22/13/26 23/16/21 24/19/34
f 25/29/18 26/36/17 27/39/36
f 28/41/41 29/37/42 30/40/35
f 5/30/19 25/29/18 29/37/42 37/38/29
f 41/25/28 10/26/38 8/22/5 6/21/4
f 40/14/27 22/13/26 20/17/40
f 32/1/1 17/3/3 34/8/25 1/9/24
f 38/42/20 28/41/41 23/16/21
f 33/12/22 16/11/9 42/33/8 3/31/23
f 31/5/13 7/56/12 14/4/39
f 39/15/15 26/61/17 35/55/11 2/10/14
s 7
f 57/75/43 63/76/44 64/77/45 58/78/46
f 56/85/47 65/86/48 63/87/44 44/88/49
f 70/98/50 47/99/51 53/96/52 62/83/53 46/84/54
f 43/80/55 57/75/43 60/110/56 51/111/57
f 64/160/45 67/122/58 69/117/59 59/113/60 58/78/46
f 68/114/61 66/126/62 55/130/63 50/118/64
f 71/104/65 51/111/57 48/103/66
f 61/93/67 52/94/68 56/85/47 44/88/49
f 51/111/57 68/114/61 50/118/64
f 62/161/53 61/82/67 45/81/69 46/84/54
f 71/104/65 70/98/50 46/84/54 45/81/69
f 55/130/63 54/106/70 49/105/71 50/118/64
f 48/103/66 47/99/51 70/98/50 71/104/65
f 49/105/71 48/103/66 51/111/57 50/118/64
f 47/99/51 49/105/71 54/106/70 53/159/52
f 53/96/52 52/94/68 61/93/67 62/83/53
f 52/94/68 54/95/70 55/89/63 56/85/47
f 56/85/47 55/89/63 66/90/62 65/86/48
f 57/75/43 58/78/46 59/113/60 60/110/56
f 64/91/45 63/87/44 65/86/48 67/92/58
f 67/158/58 66/126/62 68/114/61 69/117/59
f 47/99/51 48/103/66 49/105/71
f 52/94/68 53/96/52 54/95/70
f 65/86/48 66/90/62 67/92/58
f 60/110/56 59/113/60 69/117/59 68/114/61
f 45/81/69 61/82/67 44/79/49 43/80/55
f 44/79/49 63/76/44 57/75/43 43/80/55
s 10
f 78/134/72 76/135/73 85/136/74 72/137/75
f 94/147/76 79/148/77 82/149/78 73/150/79
f 72/137/75 86/142/80 89/143/81 78/134/72
f 73/150/79 82/149/78 91/52/82 96/50/83
f 86/142/80 96/133/83 97/156/84 87/145/85
f 85/136/74 94/129/76 73/131/79 72/137/75
f 84/141/86 75/140/87 80/155/88 95/128/89
f 83/116/90 81/119/91 74/138/92 77/139/93
f 77/139/93 88/144/94 92/107/95 83/116/90
f 97/43/84 93/45/96 90/146/97 87/145/85
f 75/140/87 74/138/92 81/119/91 80/123/88
f 76/135/73 75/140/87 84/141/86 85/136/74
f 74/138/92 76/135/73 78/134/72 77/139/93
f 77/139/93 78/134/72 89/143/81 88/144/94
f 80/132/88 79/148/77 94/147/76 95/101/89
f 79/148/77 81/100/91 83/97/90 82/149/78
f 82/149/78 83/97/90 92/47/95 91/52/82
f 86/142/80 87/145/85 90/146/97 89/143/81
f 88/144/94 90/146/97 93/154/96 92/107/95
f 91/52/82 93/45/96 97/43/84 96/50/83
f 74/138/92 75/140/87 76/135/73
f 79/148/77 80/132/88 81/100/91
f 88/144/94 89/143/81 90/146/97
f 91/52/82 92/47/95 93/45/96
f 95/157/89 94/129/76 85/136/74 84/141/86
f 72/137/75 73/131/79 96/133/83 86/142/80
s 12
f 116/108/98 120/73/99 101/121/100 99/67/101
f 103/51/102 109/49/103 106/46/104 100/44/105
f 105/68/106 111/70/107 117/166/108 98/57/109
f 119/115/110 113/120/111 107/58/112 102/151/113
f 108/63/114 115/69/115 112/72/116 104/60/117
f 114/65/118 121/71/119 118/102/120 110/74/121
f 99/67/101 98/57/109 117/166/108 116/108/98
f 100/59/105 99/67/101 101/121/100 103/125/102
f 98/153/109 100/44/105 106/46/104 105/68/106
f 102/124/113 101/121/100 120/73/99 119/112/110
f 103/51/102 102/53/113 107/58/112 109/49/103
f 105/68/106 104/60/117 112/72/116 111/70/107
f 104/60/117 106/46/104 109/49/103 108/63/114
f 108/63/114 107/58/112 113/120/111 115/69/115
f 111/70/107 110/74/121 118/102/120 117/127/108
f 110/74/121 112/72/116 115/69/115 114/65/118
f 114/65/118 113/120/111 119/152/110 121/71/119
f 116/108/98 118/109/120 121/64/119 120/73/99
f 98/57/109 99/67/101 100/59/105
f 101/121/100 102/124/113 103/125/102
f 104/60/117 105/68/106 106/46/104
f 107/58/112 108/63/114 109/49/103
f 110/74/121 111/70/107 112/72/116
f 113/120/111 114/65/118 115/69/115
f 116/108/98 117/166/108 118/109/120
f 119/112/110 120/73/99 121/64/119
s 7
f 45/81/69 43/80/55 51/111/57 71/104/65
f 60/110/56 68/114/61 51/111/57
